<?xml version="1.0" encoding="UTF-8"?>
<svg xmlns="http://www.w3.org/2000/svg" xmlns:xlink="http://www.w3.org/1999/xlink" viewBox="0 0 545.09 792">
  <defs>
    <style>
      .cls-1 {
        fill: none;
      }

      .cls-2, .cls-3 {
        fill: #f5f5f6;
      }

      .cls-2, .cls-4, .cls-5 {
        opacity: .9;
      }

      .cls-2, .cls-6, .cls-7, .cls-8 {
        mix-blend-mode: soft-light;
      }

      .cls-2, .cls-9, .cls-10, .cls-11, .cls-12, .cls-13 {
        fill-rule: evenodd;
      }

      .cls-14 {
        clip-path: url(#clippath);
      }

      .cls-15 {
        fill: url(#radial-gradient);
      }

      .cls-15, .cls-16, .cls-17, .cls-18, .cls-19, .cls-20, .cls-21, .cls-22, .cls-23, .cls-24, .cls-25, .cls-4, .cls-5, .cls-26, .cls-27, .cls-28, .cls-29, .cls-30, .cls-31, .cls-32, .cls-33, .cls-34, .cls-35, .cls-36, .cls-37, .cls-38, .cls-39, .cls-40, .cls-41, .cls-42, .cls-43, .cls-44, .cls-45 {
        mix-blend-mode: multiply;
      }

      .cls-15, .cls-19, .cls-20, .cls-21, .cls-22, .cls-23, .cls-24, .cls-25, .cls-30, .cls-31, .cls-32, .cls-33, .cls-35, .cls-36, .cls-37, .cls-38, .cls-39, .cls-40, .cls-41, .cls-42, .cls-43, .cls-44, .cls-45 {
        opacity: .5;
      }

      .cls-46 {
        fill: #f3f3f3;
      }

      .cls-47 {
        fill: #eaeaea;
      }

      .cls-48 {
        fill: #e3e3e3;
      }

      .cls-49 {
        fill: #fff;
      }

      .cls-50 {
        fill: #ffc9a2;
      }

      .cls-51 {
        fill: #e69b6b;
      }

      .cls-52 {
        fill: #7e8727;
      }

      .cls-53 {
        fill: #72b3af;
      }

      .cls-54 {
        fill: #8dad2f;
      }

      .cls-55, .cls-25 {
        fill: #857351;
      }

      .cls-56 {
        fill: #afd248;
      }

      .cls-57 {
        fill: #dedede;
      }

      .cls-58 {
        fill: #e36c6c;
      }

      .cls-59 {
        fill: #131c1f;
      }

      .cls-60 {
        fill: #484544;
      }

      .cls-61, .cls-18 {
        fill: #272a2b;
      }

      .cls-62 {
        fill: #82b63c;
      }

      .cls-16 {
        opacity: .2;
      }

      .cls-16, .cls-24 {
        fill: #e8bc9e;
      }

      .cls-17 {
        fill: #f0dccf;
      }

      .cls-18, .cls-27, .cls-28, .cls-29 {
        opacity: .4;
      }

      .cls-19 {
        fill: url(#linear-gradient-10);
      }

      .cls-20 {
        fill: url(#linear-gradient-11);
      }

      .cls-21 {
        fill: url(#linear-gradient-13);
      }

      .cls-22 {
        fill: url(#linear-gradient-17);
      }

      .cls-23 {
        fill: url(#linear-gradient-15);
      }

      .cls-4 {
        fill: #161514;
      }

      .cls-5 {
        fill: #23190e;
      }

      .cls-26 {
        fill: url(#linear-gradient-3);
      }

      .cls-26, .cls-6 {
        opacity: .3;
      }

      .cls-27 {
        fill: url(#linear-gradient-5);
      }

      .cls-28 {
        fill: url(#linear-gradient-2);
      }

      .cls-29 {
        fill: url(#linear-gradient-4);
      }

      .cls-30 {
        fill: url(#linear-gradient-6);
      }

      .cls-31 {
        fill: url(#linear-gradient-7);
      }

      .cls-32 {
        fill: url(#linear-gradient-9);
      }

      .cls-33 {
        fill: url(#linear-gradient-8);
      }

      .cls-6 {
        fill: url(#linear-gradient-12);
      }

      .cls-7 {
        fill: url(#linear-gradient-16);
      }

      .cls-8 {
        fill: url(#linear-gradient-14);
      }

      .cls-63 {
        fill: url(#Degradado_sin_nombre_41);
      }

      .cls-64 {
        fill: url(#Degradado_sin_nombre_15);
      }

      .cls-34 {
        fill: url(#linear-gradient);
      }

      .cls-35 {
        fill: url(#radial-gradient-3);
      }

      .cls-36 {
        fill: url(#radial-gradient-7);
      }

      .cls-37 {
        fill: url(#radial-gradient-9);
      }

      .cls-38 {
        fill: url(#radial-gradient-8);
      }

      .cls-39 {
        fill: url(#radial-gradient-4);
      }

      .cls-40 {
        fill: url(#radial-gradient-2);
      }

      .cls-41 {
        fill: url(#radial-gradient-5);
      }

      .cls-42 {
        fill: url(#radial-gradient-6);
      }

      .cls-9 {
        fill: #262324;
      }

      .cls-10 {
        fill: #424143;
      }

      .cls-11 {
        fill: #df9c6d;
      }

      .cls-12 {
        fill: #b57c42;
      }

      .cls-13 {
        fill: #906436;
      }

      .cls-65 {
        isolation: isolate;
      }

      .cls-66 {
        fill: url(#Degradado_sin_nombre_41-2);
      }

      .cls-67 {
        fill: url(#Degradado_sin_nombre_41-3);
      }

      .cls-68 {
        fill: url(#Degradado_sin_nombre_15-2);
      }

      .cls-69 {
        fill: url(#Degradado_sin_nombre_15-3);
      }

      .cls-43 {
        fill: url(#radial-gradient-12);
      }

      .cls-44 {
        fill: url(#radial-gradient-11);
      }

      .cls-45 {
        fill: url(#radial-gradient-10);
      }
    </style>
    <linearGradient id="linear-gradient" x1="259.19" y1="834.01" x2="156.06" y2="707.6" gradientUnits="userSpaceOnUse">
      <stop offset="0" stop-color="#fff" stop-opacity="0"/>
      <stop offset=".09" stop-color="#fefefd" stop-opacity=".03"/>
      <stop offset=".22" stop-color="#fcfbfb" stop-opacity=".12"/>
      <stop offset=".39" stop-color="#f8f6f6" stop-opacity=".27"/>
      <stop offset=".57" stop-color="#f3f0ef" stop-opacity=".48"/>
      <stop offset=".78" stop-color="#ede8e7" stop-opacity=".74"/>
      <stop offset=".96" stop-color="#e8e1df"/>
    </linearGradient>
    <linearGradient id="linear-gradient-2" x1="103.24" y1="525.74" x2="103.43" y2="510.22" gradientUnits="userSpaceOnUse">
      <stop offset="0" stop-color="#fff" stop-opacity="0"/>
      <stop offset=".33" stop-color="#fefefe" stop-opacity="0"/>
      <stop offset=".46" stop-color="#fdfcfa" stop-opacity=".04"/>
      <stop offset=".56" stop-color="#fcf8f5" stop-opacity=".1"/>
      <stop offset=".64" stop-color="#f9f2ed" stop-opacity=".17"/>
      <stop offset=".71" stop-color="#f6eae3" stop-opacity=".28"/>
      <stop offset=".78" stop-color="#f2e1d6" stop-opacity=".4"/>
      <stop offset=".84" stop-color="#edd6c7" stop-opacity=".55"/>
      <stop offset=".89" stop-color="#e8cab5" stop-opacity=".73"/>
      <stop offset=".94" stop-color="#e2bca2" stop-opacity=".92"/>
      <stop offset=".96" stop-color="#e0b69a"/>
    </linearGradient>
    <radialGradient id="Degradado_sin_nombre_15" data-name="Degradado sin nombre 15" cx="246.44" cy="362.3" fx="246.44" fy="362.3" r="198.45" gradientUnits="userSpaceOnUse">
      <stop offset="0" stop-color="#f2f2f2"/>
      <stop offset=".85" stop-color="#e3e3e3"/>
      <stop offset="1" stop-color="#e0e0e0"/>
    </radialGradient>
    <linearGradient id="linear-gradient-3" x1="191.89" y1="372.54" x2="192.27" y2="344.07" gradientUnits="userSpaceOnUse">
      <stop offset="0" stop-color="#fff" stop-opacity="0"/>
      <stop offset=".09" stop-color="#fefcfb" stop-opacity=".03"/>
      <stop offset=".23" stop-color="#fbf6f3" stop-opacity=".12"/>
      <stop offset=".39" stop-color="#f6ebe4" stop-opacity=".26"/>
      <stop offset=".57" stop-color="#f0ddd0" stop-opacity=".46"/>
      <stop offset=".76" stop-color="#e8cab6" stop-opacity=".71"/>
      <stop offset=".96" stop-color="#e0b69a"/>
    </linearGradient>
    <linearGradient id="linear-gradient-4" x1="191.72" y1="373.93" x2="192.11" y2="344.47" gradientUnits="userSpaceOnUse">
      <stop offset="0" stop-color="#fff" stop-opacity="0"/>
      <stop offset=".14" stop-color="#f8f0ea" stop-opacity=".2"/>
      <stop offset=".36" stop-color="#efdbce" stop-opacity=".48"/>
      <stop offset=".56" stop-color="#e9cbb7" stop-opacity=".71"/>
      <stop offset=".73" stop-color="#e4bfa7" stop-opacity=".87"/>
      <stop offset=".87" stop-color="#e1b89d" stop-opacity=".96"/>
      <stop offset=".96" stop-color="#e0b69a"/>
    </linearGradient>
    <radialGradient id="Degradado_sin_nombre_15-2" data-name="Degradado sin nombre 15" cx="246.44" fx="246.44" r="198.45" xlink:href="#Degradado_sin_nombre_15"/>
    <radialGradient id="Degradado_sin_nombre_15-3" data-name="Degradado sin nombre 15" r="198.45" xlink:href="#Degradado_sin_nombre_15"/>
    <clipPath id="clippath">
      <path class="cls-1" d="m235.25,401.51s-.07-.01-.08-.04c-.01-.02,0-.07,0-.09,0-.05,0-.1,0-.16,0-.1.01-.2.02-.29.02-.2.03-.4.05-.6.04-.39.1-.78.16-1.17.02-.1.03-.19.05-.29.01-.07.02-.15.06-.22,0-.01.02-.03.03-.04.02-.02.06-.02.07.01.1.28.17.57.2.86.03.34.03.68.02,1.02,0,.15-.03.31-.13.42,0,0-.01.02-.02.03,0,.02-.02.03-.04.03-.03,0-.07,0-.1,0-.07,0-.12.1-.06.15.09.07.09.21.01.29-.04.04-.1.07-.16.08-.01,0-.02,0-.04,0-.02,0-.04,0-.06,0m-2.67-19.44s-.28.13-.28.14c-.72.38-1.29.77-1.93,1.27-.34.26-.66.54-.97.84-.15.15-.3.29-.45.45-.07.08-.14.16-.22.23-.03.03-.11.09-.16.09-.1,0-.19.01-.28.06-.07.04-.12.09-.18.14-.1.1-.18.23-.29.31-.16.1-.33.02-.5-.02-.1-.02-.21-.04-.31-.01-.09.02-.17.06-.23.12-.32.26-.31.7-.43,1.06-.13.38-.51.56-.82.78-.18.13-.36.27-.53.42-.15.14-.3.29-.4.47-.1.17-.15.37-.11.56.04.17.16.32.32.39.02,0,.03.01.05.02-.09.17-.06.41.07.57.2.25.57.33.87.37.68.09,1.38,0,2.04.18.29.08.56.23.76.45.21.23.36.52.6.74.19.17.45.28.71.25.22-.02.45-.16.49-.4.03-.2-.02-.41-.03-.61,0-.03,0-.07,0-.1,0,0,0-.02.02-.02.16,0,.32.08.41.21.12.17.59.63.92.6,0,0,0,0,0,0,0,.17.02.34.03.5.03.32.07.63.13.94,0,.01,0,.02-.02.02-.38.03-.75.05-1.13.03,0,0-.02,0-.02-.01-.05-.18-.09-.36-.1-.55,0,0,0,0,0-.01.01-.02.02-.05,0-.09,0-.01-.01-.03-.01-.04,0-.02,0-.04,0-.06,0-.01,0-.03,0-.04.05,0,.1,0,.15,0,.06,0,.1-.06.08-.12,0-.07,0-.13,0-.2.02-.06-.03-.11-.08-.11-.19,0-.38,0-.57,0-.04,0-.08.03-.09.06-.06.35-.05.71.03,1.07.02.08.04.17.07.25.02.06.05.07.11.09.05.01.1.02.15.03.09.02.18.04.28.06.05,0,.09.02.14.03.04,0,.08.01.12.03.03.01.03.04.03.06,0,.12-.02.25.03.37,0,.01,0,.03-.02.03-.17.02-.34.04-.5.08,0,0-.01,0-.02-.02,0-.11-.03-.22-.1-.31-.08-.1-.23-.16-.35-.11-.03.01-.06.03-.09.05-.04.04-.04.09-.04.14,0,.09,0,.18-.01.27,0,.18,0,.37.02.55,0,.08.12.19.25-.1.43.11.35.09.78.19,0,.16-.03.32-.06.48,0,.03,0,.09-.04.11-.03.03-.09.04-.13.05-.12.04-.23.08-.35.11-.05.01-.07.06-.06.11.03.09.05.19.08.28.02.08.04.18.12.23.08.04.18,0,.26-.01.09-.02.18-.05.28-.07.09-.02.18-.05.28-.07.08-.02.17-.03.22-.1.06-.07.04-.17.04-.26,0-.1,0-.19,0-.29,0-.2,0-.41.03-.61,0-.01,0-.02.02-.02.24.02.48.02.72,0,.13,0,.27-.02.4-.04.1-.02.21-.06.27-.15.04-.07.05-.15.05-.23,0-.02.02-.03.03-.01.13.18.27.35.43.51.16.15.34.28.5.42.15.13.29.28.4.44.13.18.31.49.39.69,0,.01,0,.02-.01.03-.32.78-.46,1.64-.45,2.49,0,.44.05.87.14,1.3,0,.01,0,.02-.02.02-.46-.04-.92-.04-1.38-.01-.04,0-.08.03-.09.06-.09.46-.18.91-.27,1.37,0,.05.02.12.09.11.15-.02.3-.04.45-.05.05,0,.11-.05.09-.11-.07-.2-.08-.43.03-.61.1-.17.27-.26.47-.25.05,0,.1.02.14.04.01,0,.01.02,0,.03-.16.12-.27.3-.33.49-.04.12-.04.25-.02.38.02.16.1.3.1.46,0,.04.03.07.07.07.13,0,.25,0,.38.01.07,0,.14-.1.04-.16-.04-.02-.06-.06-.05-.1.02-.12-.04-.28-.04-.43,0-.06.03-.09.07-.13.1-.09.22-.17.34-.24.01,0,.03,0,.03.01.03.27.05.54.08.82,0,.07,0,.16.05.21.05.05.11.07.18.06.08,0,.17-.02.25-.03.01,0,.02.01.02.02-.13.47-.48.84-.87,1.11-.46.33-.99.56-1.53.73-.56.17-1.14.27-1.72.32-.6.06-1.2.07-1.8.05-.61-.02-1.23-.1-1.8-.34-.46-.2-.89-.5-1.18-.91-.15-.21-.27-.44-.33-.7-.08-.3-.09-.61-.11-.92-.03-.56-.03-1.18.3-1.67.02-.02.03-.05.05-.07.07-.09.16-.19.27-.24.04-.02.09-.03.13,0,.05.03.06.11.07.16.04.16.07.32.1.48.05.32.07.64.07.97,0,.15,0,.32-.02.47,0,.05-.03.09-.06.11-.03.01-.07,0-.11-.02-.08-.04-.16-.11-.21-.18,0,0,0,0,0,0,0-.02-.02-.03-.03-.04-.07-.07-.2,0-.14.1,0,.01.02.03.03.04,0,0,0,0,0,0,.08.15.17.29.3.39.12.09.3.13.45.08.16-.06.24-.21.26-.37.02-.21-.03-.44-.04-.65-.03-.33-.06-.66-.08-.98-.03-.27-.04-.55-.08-.83-.02-.16-.07-.33-.21-.42-.16-.1-.37-.07-.54-.04-.17.03-.34.07-.51.13-.19.07-.39.16-.56.27-.15.1-.27.24-.34.41-.07.18-.1.38-.12.57-.02.19-.03.39-.03.58,0,.38.06.76.15,1.13.18.77.51,1.5.88,2.2.18.34.36.68.57,1,.2.31.45.57.79.73.36.16.75.24,1.13.33.41.1.82.19,1.23.26.81.14,1.64.23,2.47.19.68-.03,1.35-.21,1.99-.44.66-.24,1.31-.55,1.9-.93.13-.08.26-.17.38-.26,0,0,.02,0,.02-.02.23-.24.48-.46.73-.68.26-.22.47-.49.67-.76.12-.17.23-.34.32-.53.2-.38.42-.76.6-1.15.22-.48.36-.98.49-1.49.14-.53.28-1.05.38-1.59.21-1.09.2-2.2.08-3.29-.12-1.11-.32-2.21-.5-3.31l-.03-.19s0,0,0,0c-.02-.2-.04-.39-.08-.59,0-.02.02-.03.03-.01.23.3.47.45.62.81.02.04.31.56.36.56.04,0,.06-.32.06-.37-.01-.28,0-.59-.15-.84-.11-.19-.39-.49-.52-.61l-.34-.3s0-.03.02-.03c.44.15.71.29,1.05.61.03.03.27.22.31.2.03-.03-.15-.4-.18-.44-.31-.42-.59-.71-1.02-.96.27.06.55.14.8.26.49.25.15-.14.09-.22-.41-.52-1.14-.99-1.73-1.28-.26-.13-.45-.23-.59-.3.42.04.75.14,1.16.28.14.05.07,0,.2.08.04.02.59.22.61.18.03-.05-.4-.43-.43-.45-.57-.43-1-.68-1.66-.94-.24-.1-.5-.16-.76-.2l-.14-.02s-.02,0-.02,0c0,0,.02,0,.04,0,.48,0,1.03.06,1.51.12.2.03.26.02.46.05.04,0,.53.1.55.05.02-.04-.6-.4-.64-.42-1.9-.91-3.28-1.02-3.85-1.01.2-.01.56-.03,1.18-.07.52-.03,1.38.19,1.56.24.92.25.2-.24.12-.28-.5-.27-1.15-.55-1.72-.59-.74-.06-1-.1-1.57-.06-.16.01-.28.03-.37.05.43-.19.89-.32,1.35-.38.21-.03,1.3-.04,1.52-.04.1,0,1.09-.06-.02-.39-.5-.15-1.91-.11-2.43-.05-.51.06-1.01.19-1.48.39.17-.13.34-.25.54-.37.45-.29,2.28-.98,2.36-1,.11-.03.76-.46-.41-.29-.08.01-.56.13-.63.15-.56.15-.63.2-1.18.4-.31.11-.25.08-.56.21-.29.12-.73.4-1.03.58.1-.12.2-.23.32-.34.4-.39.86-.71,1.33-1.01.28-.17.56-.34.84-.5.09-.05.54-.46-.18-.31-.6.13-1.08.41-1.64.66-.55.26-1.12.5-1.55.94-.21.21-.36.29-.36.29,0,0,.02-.1.15-.3.02-.02.08-.08.28-.34.26-.33.59-.62.91-.88.16-.13.75-.56.77-.58.12-.09.38-.35.14-.35-.09,0-.24.03-.48.12"/>
    </clipPath>
    <linearGradient id="linear-gradient-5" x1="3367.57" y1="465.27" x2="3367.75" y2="449.75" gradientTransform="translate(3338.34 1901.04) rotate(-159.76)" xlink:href="#linear-gradient-2"/>
    <radialGradient id="radial-gradient" cx="2504.39" cy="217.56" fx="2504.39" fy="217.56" r="35.51" gradientTransform="translate(-1242.85 -1737.84) rotate(55.93) scale(1 -.98)" gradientUnits="userSpaceOnUse">
      <stop offset="0" stop-color="#fff" stop-opacity="0"/>
      <stop offset=".3" stop-color="#fefefe" stop-opacity="0"/>
      <stop offset=".45" stop-color="#fdfbfa" stop-opacity=".04"/>
      <stop offset=".55" stop-color="#fbf7f4" stop-opacity=".1"/>
      <stop offset=".65" stop-color="#f9f1ec" stop-opacity=".18"/>
      <stop offset=".73" stop-color="#f6e9e1" stop-opacity=".29"/>
      <stop offset=".8" stop-color="#f1e0d4" stop-opacity=".42"/>
      <stop offset=".87" stop-color="#edd4c4" stop-opacity=".58"/>
      <stop offset=".93" stop-color="#e7c7b2" stop-opacity=".76"/>
      <stop offset=".99" stop-color="#e1b99e" stop-opacity=".96"/>
      <stop offset="1" stop-color="#e0b69a"/>
    </radialGradient>
    <linearGradient id="linear-gradient-6" x1="2486.44" y1="248.54" x2="2504.11" y2="233.48" gradientTransform="translate(2840.65) rotate(-180) scale(1 -1)" gradientUnits="userSpaceOnUse">
      <stop offset="0" stop-color="#fff" stop-opacity="0"/>
      <stop offset="1" stop-color="#e0b69a"/>
    </linearGradient>
    <linearGradient id="linear-gradient-7" x1="2491.99" y1="226.24" x2="2522.72" y2="225.22" gradientTransform="translate(2840.65) rotate(-180) scale(1 -1)" gradientUnits="userSpaceOnUse">
      <stop offset="0" stop-color="#fff" stop-opacity="0"/>
      <stop offset=".11" stop-color="#fefdfc" stop-opacity=".02"/>
      <stop offset=".24" stop-color="#fcf8f6" stop-opacity=".08"/>
      <stop offset=".37" stop-color="#f9f1ec" stop-opacity=".18"/>
      <stop offset=".51" stop-color="#f4e7dd" stop-opacity=".33"/>
      <stop offset=".66" stop-color="#efd9cb" stop-opacity=".51"/>
      <stop offset=".81" stop-color="#e8c9b4" stop-opacity=".74"/>
      <stop offset=".95" stop-color="#e0b69a" stop-opacity="1"/>
      <stop offset=".96" stop-color="#e0b69a"/>
    </linearGradient>
    <radialGradient id="radial-gradient-2" cx="2801.12" cy="217.56" fx="2801.12" fy="217.56" r="35.51" gradientTransform="translate(1793.9 -1983.64) rotate(124.07) scale(1 .98)" xlink:href="#radial-gradient"/>
    <linearGradient id="linear-gradient-8" x1="2783.17" y1="248.54" x2="2800.84" y2="233.48" gradientTransform="translate(-2752.56)" xlink:href="#linear-gradient-6"/>
    <linearGradient id="linear-gradient-9" x1="2788.72" y1="226.24" x2="2819.45" y2="225.22" gradientTransform="translate(-2752.56)" xlink:href="#linear-gradient-7"/>
    <radialGradient id="radial-gradient-3" cx="196.84" cy="188.83" fx="196.84" fy="188.83" r="157.93" gradientTransform="translate(0 -10.44) scale(1 1.06)" gradientUnits="userSpaceOnUse">
      <stop offset="0" stop-color="#fff" stop-opacity="0"/>
      <stop offset=".11" stop-color="#fefdfc" stop-opacity=".02"/>
      <stop offset=".24" stop-color="#fcf8f6" stop-opacity=".08"/>
      <stop offset=".37" stop-color="#f9f1eb" stop-opacity=".19"/>
      <stop offset=".52" stop-color="#f4e6dd" stop-opacity=".34"/>
      <stop offset=".66" stop-color="#eed8ca" stop-opacity=".52"/>
      <stop offset=".81" stop-color="#e7c8b3" stop-opacity=".75"/>
      <stop offset=".96" stop-color="#e0b69a"/>
    </radialGradient>
    <linearGradient id="linear-gradient-10" x1="191.43" y1="170.22" x2="176.47" y2="258.93" gradientUnits="userSpaceOnUse">
      <stop offset="0" stop-color="#fff" stop-opacity="0"/>
      <stop offset=".09" stop-color="#fdfcfb" stop-opacity=".04"/>
      <stop offset=".24" stop-color="#faf4f0" stop-opacity=".15"/>
      <stop offset=".44" stop-color="#f5e7de" stop-opacity=".32"/>
      <stop offset=".66" stop-color="#edd5c5" stop-opacity=".56"/>
      <stop offset=".9" stop-color="#e3bfa6" stop-opacity=".87"/>
      <stop offset="1" stop-color="#e0b69a"/>
    </linearGradient>
    <linearGradient id="linear-gradient-11" x1="193.39" y1="273.96" x2="190.43" y2="251.72" gradientUnits="userSpaceOnUse">
      <stop offset="0" stop-color="#fff" stop-opacity="0"/>
      <stop offset=".48" stop-color="#f0dccf" stop-opacity=".47"/>
      <stop offset="1" stop-color="#e0b69a"/>
    </linearGradient>
    <linearGradient id="linear-gradient-12" x1="200.14" y1="241.73" x2="202.57" y2="240.3" gradientUnits="userSpaceOnUse">
      <stop offset="0" stop-color="#fff" stop-opacity="0"/>
      <stop offset=".23" stop-color="#fff" stop-opacity="0"/>
      <stop offset=".36" stop-color="#fff" stop-opacity=".04"/>
      <stop offset=".47" stop-color="#fff" stop-opacity=".1"/>
      <stop offset=".56" stop-color="#fff" stop-opacity=".17"/>
      <stop offset=".64" stop-color="#fff" stop-opacity=".27"/>
      <stop offset=".72" stop-color="#fff" stop-opacity=".4"/>
      <stop offset=".79" stop-color="#fff" stop-opacity=".55"/>
      <stop offset=".86" stop-color="#fff" stop-opacity=".72"/>
      <stop offset=".93" stop-color="#fff" stop-opacity=".91"/>
      <stop offset=".96" stop-color="#fff"/>
    </linearGradient>
    <linearGradient id="linear-gradient-13" x1="237.76" y1="212.3" x2="237.76" y2="230.79" xlink:href="#linear-gradient-11"/>
    <radialGradient id="radial-gradient-4" cx="239.46" cy="198.9" fx="239.46" fy="198.9" r="32.67" gradientTransform="translate(0 -31.28) scale(1 1.16)" gradientUnits="userSpaceOnUse">
      <stop offset="0" stop-color="#fff" stop-opacity="0"/>
      <stop offset=".26" stop-color="#fefefd" stop-opacity=".01"/>
      <stop offset=".4" stop-color="#fdfbfa" stop-opacity=".05"/>
      <stop offset=".51" stop-color="#fbf7f4" stop-opacity=".11"/>
      <stop offset=".6" stop-color="#f9f1eb" stop-opacity=".19"/>
      <stop offset=".68" stop-color="#f5e9e0" stop-opacity=".3"/>
      <stop offset=".76" stop-color="#f1dfd2" stop-opacity=".44"/>
      <stop offset=".83" stop-color="#ecd3c2" stop-opacity=".6"/>
      <stop offset=".89" stop-color="#e6c5b0" stop-opacity=".78"/>
      <stop offset=".95" stop-color="#e0b69b" stop-opacity=".99"/>
      <stop offset=".96" stop-color="#e0b69a"/>
    </radialGradient>
    <radialGradient id="radial-gradient-5" cx="238.5" cy="199.85" fx="238.5" fy="199.85" r="14.23" gradientTransform="translate(0 -31.43) scale(1 1.16)" xlink:href="#radial-gradient-4"/>
    <radialGradient id="radial-gradient-6" cx="237.76" cy="200.59" fx="237.76" fy="200.59" r="9.69" gradientTransform="matrix(1, 0, 0, 1, 0, 0)" xlink:href="#radial-gradient-4"/>
    <linearGradient id="linear-gradient-14" x1="237.25" y1="201.7" x2="242.1" y2="191.06" gradientUnits="userSpaceOnUse">
      <stop offset="0" stop-color="#fff" stop-opacity="0"/>
      <stop offset=".18" stop-color="#fff" stop-opacity=".25"/>
      <stop offset=".39" stop-color="#fff" stop-opacity=".52"/>
      <stop offset=".58" stop-color="#fff" stop-opacity=".72"/>
      <stop offset=".74" stop-color="#fff" stop-opacity=".87"/>
      <stop offset=".87" stop-color="#fff" stop-opacity=".97"/>
      <stop offset=".96" stop-color="#fff"/>
    </linearGradient>
    <linearGradient id="linear-gradient-15" x1="142.79" y1="214.58" x2="142.79" y2="233.07" xlink:href="#linear-gradient-11"/>
    <radialGradient id="radial-gradient-7" cx="144.49" cy="201.17" fx="144.49" fy="201.17" r="32.67" gradientTransform="translate(0 -31.64) scale(1 1.16)" xlink:href="#radial-gradient-4"/>
    <radialGradient id="radial-gradient-8" cx="143.57" cy="202.13" fx="143.57" fy="202.13" r="14.23" gradientTransform="translate(0 -31.79) scale(1 1.16)" xlink:href="#radial-gradient-4"/>
    <radialGradient id="radial-gradient-9" cx="142.79" cy="202.87" fx="142.79" fy="202.87" r="9.69" gradientTransform="matrix(1, 0, 0, 1, 0, 0)" xlink:href="#radial-gradient-4"/>
    <linearGradient id="linear-gradient-16" x1="142.28" y1="203.97" x2="147.13" y2="193.34" xlink:href="#linear-gradient-14"/>
    <linearGradient id="linear-gradient-17" x1="191.67" y1="209.84" x2="195.37" y2="103.4" gradientUnits="userSpaceOnUse">
      <stop offset="0" stop-color="#fff" stop-opacity="0"/>
      <stop offset=".09" stop-color="#fdfbfa" stop-opacity=".04"/>
      <stop offset=".24" stop-color="#faf3ef" stop-opacity=".15"/>
      <stop offset=".43" stop-color="#f4e6dc" stop-opacity=".34"/>
      <stop offset=".65" stop-color="#ecd3c3" stop-opacity=".59"/>
      <stop offset=".89" stop-color="#e2bca2" stop-opacity=".91"/>
      <stop offset=".96" stop-color="#e0b69a"/>
    </linearGradient>
    <linearGradient id="Degradado_sin_nombre_41" data-name="Degradado sin nombre 41" x1="190.43" y1="16.89" x2="190.43" y2="105.06" gradientUnits="userSpaceOnUse">
      <stop offset="0" stop-color="#453b2a"/>
      <stop offset="1" stop-color="#352a1b"/>
    </linearGradient>
    <radialGradient id="radial-gradient-10" cx="244.89" cy="101.26" fx="244.89" fy="101.26" r="32.03" gradientTransform="translate(17.41 28.86) rotate(9.03) scale(1 .6) skewX(-2.09)" xlink:href="#radial-gradient-3"/>
    <linearGradient id="Degradado_sin_nombre_41-2" data-name="Degradado sin nombre 41" x1="244.85" y1="114.33" x2="244.85" y2="140.18" xlink:href="#Degradado_sin_nombre_41"/>
    <radialGradient id="radial-gradient-11" cx="3414.85" cy="97.33" fx="3414.85" fy="97.33" r="32.03" gradientTransform="translate(3480.48 -467.47) rotate(170.97) scale(1 -.6) skewX(-2.09)" xlink:href="#radial-gradient-3"/>
    <linearGradient id="Degradado_sin_nombre_41-3" data-name="Degradado sin nombre 41" x1="136.92" y1="114.33" x2="136.92" y2="140.18" xlink:href="#Degradado_sin_nombre_41"/>
    <radialGradient id="radial-gradient-12" cx="199.15" cy="310.5" fx="199.15" fy="310.5" r="21.38" gradientTransform="translate(-109.08 627.76) rotate(-109.07) scale(1 1.27)" gradientUnits="userSpaceOnUse">
      <stop offset="0" stop-color="#fff" stop-opacity="0"/>
      <stop offset=".33" stop-color="#fefefe" stop-opacity="0"/>
      <stop offset=".46" stop-color="#fdfcfa" stop-opacity=".04"/>
      <stop offset=".56" stop-color="#fcf8f5" stop-opacity=".1"/>
      <stop offset=".64" stop-color="#f9f2ed" stop-opacity=".17"/>
      <stop offset=".71" stop-color="#f6eae3" stop-opacity=".28"/>
      <stop offset=".78" stop-color="#f2e1d6" stop-opacity=".4"/>
      <stop offset=".84" stop-color="#edd6c7" stop-opacity=".55"/>
      <stop offset=".89" stop-color="#e8cab5" stop-opacity=".72"/>
      <stop offset=".94" stop-color="#e2bca2" stop-opacity=".91"/>
      <stop offset=".96" stop-color="#e0b69a"/>
    </radialGradient>
  </defs>
  <g class="cls-65">
    <g id="Modo_de_aislamiento" data-name="Modo de aislamiento">
      <g id="KID">
        <g>
          <path class="cls-34" d="m271.88,747.31c0,6.43-37.35,11.64-83.42,11.64s-83.42-5.21-83.42-11.64,37.35-11.64,83.42-11.64,83.42,5.21,83.42,11.64Z"/>
          <g>
            <g>
              <g>
                <g>
                  <path class="cls-61" d="m219.7,728.97c0,2.75,2.23,4.98,4.98,4.98s4.98-2.23,4.98-4.98-2.23-4.98-4.98-4.98-4.98,2.23-4.98,4.98Z"/>
                  <path class="cls-18" d="m219.7,728.97c0,2.75,2.23,4.98,4.98,4.98s4.98-2.23,4.98-4.98-2.23-4.98-4.98-4.98-4.98,2.23-4.98,4.98Z"/>
                </g>
                <path class="cls-61" d="m229.93,729.62s8.77,9.49,16.9,12.84c8.12,3.34,8.64,3.86,5.81,7.71,0,0-16.36,3.34-22.71,1.02-6.35-2.32-8.92-6.94-13.54-7.45-4.63-.51,3.34-14.93,3.34-14.93l10.2.81Z"/>
                <path class="cls-55" d="m215.87,743c4.86.47,7.6,5.07,14.29,7.33,5.89,1.98,19.89-.49,23.14-1.11-.2.3-.41.61-.66.95,0,0-16.36,3.34-22.71,1.02-6.35-2.32-8.92-6.94-13.54-7.45-.65-.07-1.03-.44-1.24-.97.2.12.44.2.72.23Z"/>
              </g>
              <g>
                <path class="cls-55" d="m246.63,617.59s-10.53,80.19-16.58,111.49l-10.59-.32s3.81-90.96,3.11-111.77l24.06.6Z"/>
                <path class="cls-55" d="m222.57,616.99c-.17,5.42,8.53,9.95,13.95,10.11,5.42.17,9.95-4.09,10.11-9.51.17-5.42-4.09-9.95-9.52-10.12-5.42-.16-14.38,4.1-14.54,9.51Z"/>
                <path class="cls-55" d="m219.46,728.76c-.09,2.92,2.21,5.37,5.13,5.45,2.92.09,5.36-2.2,5.45-5.13.08-2.92-2.22-5.36-5.14-5.45-2.92-.09-5.36,2.21-5.45,5.13Z"/>
              </g>
              <path class="cls-57" d="m230.53,739.68c-.14,0-.29-.09-.35-.21-.05-.1-.08-.27.06-.48.26-.38,1.27-1.27,2.7-1.99-1.6.14-3.26.36-4.42.72-.19.05-.38-.04-.46-.21s0-.39.17-.48c.13-.07,1.96-1.02,3.79-1.78-1.67.16-3.61.46-4.88,1.03-.17.08-.37.02-.47-.14-.1-.16-.07-.36.07-.48.08-.07,1.49-1.3,3.54-2.14-1.44.08-3.08.27-4.25.72-.19.07-.4-.02-.48-.21-.08-.19,0-.4.2-.49.27-.12,2.24-.98,3.62-1.32-1.63-1.62-5.67-5.84-5.21-7.37.06-.18.22-.51.72-.6,2.05-.39,4.6,4.45,5.77,6.98,1.43-1.96,4.03-5.19,5.44-4.78.41.12.53.4.56.56.24,1.24-3.5,4.28-5.35,5.71,1.23-.02,2.14.02,2.23.03.2.01.35.17.35.37s-.15.36-.35.38c-1.67.1-3.21.75-4.35,1.39,2.53-.51,5.46-.57,5.99-.58.03,0,.06,0,.08,0,.21,0,.37.17.37.38,0,.21-.17.37-.37.37,0,0-.03,0-.09,0-.81.03-2.45.67-3.95,1.35,1.58-.2,3.26-.3,4.54-.35.69-.11,1.41-.14,2.16-.04.2.02.34.2.33.4-.01.2-.18.35-.37.35-.02,0-.85,0-2.05.05-1.6.27-2.99,1.02-3.89,1.66,3.82-.93,7.96-.37,8.16-.34.21.03.35.22.32.42-.03.2-.2.36-.42.32-.05,0-5.34-.73-9.31.76-.04.02-.09.02-.13.02Zm-.03-6.92s0,0-.01.01c0,0,.01,0,.02,0,0,0,0,0,0,0,0,0,0,0,0,0Zm5.32-5.59c-.85,0-3,2.34-4.78,4.83,2.76-2.14,4.95-4.3,4.87-4.82-.03,0-.06-.01-.09-.01Zm-10.68-2.16s-.08,0-.12.01c-.13.02-.14.06-.15.08-.24.8,2.55,4.19,5.27,6.87,0,0,0,0,0,0-1.44-3.17-3.7-6.96-5.01-6.96Z"/>
              <g>
                <path class="cls-55" d="m250.15,540.17s3.13,15.48-3.56,76.07l-24.66,1.03s-4.68-35.62-9.28-75.18l37.49-1.92Z"/>
                <path class="cls-55" d="m212.66,542.08c.53,10.35,9.35,18.32,19.7,17.79,10.36-.53,18.32-9.35,17.79-19.71-.53-10.35-9.35-18.32-19.7-17.79-10.35.53-18.32,9.35-17.79,19.71Z"/>
                <path class="cls-55" d="m221.94,617.26c.29,5.59,9.48,9.88,15.06,9.59,5.58-.28,9.88-5.04,9.59-10.62-.29-5.59-5.05-9.88-10.63-9.59-5.58.28-14.31,5.04-14.03,10.62Z"/>
              </g>
            </g>
            <g>
              <g>
                <g>
                  <path class="cls-61" d="m164.41,728.97c0,2.75-2.23,4.98-4.98,4.98s-4.98-2.23-4.98-4.98,2.23-4.98,4.98-4.98,4.98,2.23,4.98,4.98Z"/>
                  <path class="cls-18" d="m164.41,728.97c0,2.75-2.23,4.98-4.98,4.98s-4.98-2.23-4.98-4.98,2.23-4.98,4.98-4.98,4.98,2.23,4.98,4.98Z"/>
                </g>
                <path class="cls-61" d="m154.18,729.62s-8.77,9.49-16.9,12.84c-8.12,3.34-8.64,3.86-5.81,7.71,0,0,16.36,3.34,22.71,1.02,6.35-2.32,8.92-6.94,13.54-7.45,4.63-.51-3.34-14.93-3.34-14.93l-10.2.81Z"/>
                <path class="cls-55" d="m168.24,743c-4.86.47-7.6,5.07-14.29,7.33-5.89,1.98-19.89-.49-23.14-1.11.2.3.41.61.66.95,0,0,16.36,3.34,22.71,1.02,6.35-2.32,8.92-6.94,13.54-7.45.65-.07,1.03-.44,1.24-.97-.2.12-.44.2-.72.23Z"/>
              </g>
              <g>
                <path class="cls-55" d="m137.48,617.59s10.53,80.19,16.58,111.49l10.59-.32s-3.81-90.96-3.11-111.77l-24.06.6Z"/>
                <path class="cls-55" d="m161.54,616.99c.17,5.42-8.53,9.95-13.95,10.11-5.42.17-9.95-4.09-10.11-9.51-.17-5.42,4.09-9.95,9.52-10.12,5.42-.16,14.38,4.1,14.54,9.51Z"/>
                <path class="cls-55" d="m164.65,728.76c.09,2.92-2.21,5.37-5.13,5.45-2.92.09-5.36-2.2-5.45-5.13-.08-2.92,2.22-5.36,5.14-5.45,2.92-.09,5.36,2.21,5.45,5.13Z"/>
              </g>
              <path class="cls-57" d="m153.58,739.68s-.09,0-.13-.02c-3.97-1.49-9.26-.77-9.31-.76-.2.03-.39-.11-.42-.32-.03-.21.11-.4.32-.42.2-.03,4.33-.59,8.16.34-.9-.64-2.29-1.39-3.89-1.66-1.19-.05-2.03-.05-2.05-.05-.2,0-.36-.15-.37-.35-.01-.2.13-.37.33-.4.74-.09,1.47-.07,2.16.04,1.28.05,2.96.15,4.54.35-1.5-.67-3.14-1.32-3.95-1.35-.05,0-.08,0-.09,0-.21,0-.37-.17-.37-.37,0-.21.16-.37.37-.38.03,0,.05,0,.08,0,.53,0,3.46.06,5.99.58-1.14-.64-2.68-1.29-4.35-1.39-.2-.01-.35-.18-.35-.38,0-.2.16-.36.35-.37.09,0,1-.05,2.23-.03-1.86-1.42-5.59-4.46-5.35-5.71.03-.16.14-.45.56-.56,1.42-.41,4.02,2.82,5.44,4.78,1.17-2.52,3.72-7.37,5.77-6.98.5.1.67.42.72.6.46,1.52-3.58,5.74-5.21,7.37,1.38.34,3.35,1.2,3.62,1.32.19.08.27.3.2.49-.08.19-.29.28-.48.21-1.18-.45-2.81-.64-4.25-.72,2.05.84,3.46,2.06,3.54,2.14.14.12.17.33.07.48-.1.16-.3.22-.47.14-1.27-.57-3.21-.87-4.88-1.03,1.84.76,3.67,1.71,3.79,1.78.17.09.25.3.17.48-.07.18-.27.27-.46.21-1.16-.36-2.82-.59-4.42-.72,1.43.72,2.44,1.61,2.7,1.99.15.21.11.38.06.48-.06.12-.21.21-.35.21Zm.02-6.91s.01,0,.02,0c0,0-.01,0-.01-.01,0,0,0,0,0,0s0,0,0,0Zm-5.28-5.59s-.07,0-.1.01c-.1.5,2.09,2.66,4.85,4.8-1.78-2.48-3.91-4.82-4.75-4.82Zm5.64,4.78s0,0,0,0c2.72-2.68,5.51-6.06,5.27-6.87,0-.02-.02-.06-.15-.08-1.29-.26-3.65,3.68-5.13,6.95Z"/>
              <g>
                <path class="cls-55" d="m133.95,540.17s-3.13,15.48,3.56,76.07l24.66,1.03s4.68-35.62,9.28-75.18l-37.49-1.92Z"/>
                <path class="cls-55" d="m171.45,542.08c-.53,10.35-9.35,18.32-19.7,17.79-10.36-.53-18.32-9.35-17.79-19.71.53-10.35,9.35-18.32,19.7-17.79,10.35.53,18.32,9.35,17.79,19.71Z"/>
                <path class="cls-55" d="m162.17,617.26c-.29,5.59-9.48,9.88-15.06,9.59-5.58-.28-9.88-5.04-9.59-10.62.29-5.59,5.05-9.88,10.63-9.59,5.58.28,14.31,5.04,14.03,10.62Z"/>
              </g>
            </g>
            <g>
              <path class="cls-55" d="m256.61,511.92c0,28.22-15.07,47.2-64.73,47.2s-64.74-18.98-64.74-47.2,28.99-51.1,64.74-51.1,64.73,22.88,64.73,51.1Z"/>
              <path class="cls-25" d="m188.44,520.65s.72,20.42,3.44,28.96h7.94l-6.88-1.42s-2-14.96-2.79-27.54h-1.71Z"/>
            </g>
          </g>
        </g>
        <g>
          <g>
            <path class="cls-46" d="m239.72,379.72c6.31,2.53,13.48-.54,16-6.85,2.53-6.31-.53-13.47-6.84-16-6.31-2.53-13.48.54-16,6.85-2.53,6.31.54,13.47,6.84,16Z"/>
            <path class="cls-46" d="m298.63,402.5c4.7,1.88,10.03-.4,11.91-5.09,1.88-4.69-.4-10.02-5.09-11.91-4.7-1.88-10.02.4-11.91,5.09-1.88,4.7.4,10.02,5.09,11.91Z"/>
            <polygon class="cls-46" points="248.89 356.87 239.72 379.72 298.63 402.5 305.44 385.5 248.89 356.87"/>
          </g>
          <g>
            <path class="cls-50" d="m109.36,505.01s9.55,10.9,5.55,13.03c-1.75.93-5.55-4.16-5.55-4.16,0,0,5.31,12.96,1.85,13.77-3.65.86-6.38-11.74-6.38-11.74,0,0,3.47,15.16-.83,15.16-4.01,0-3.64-15.16-3.64-15.16,0,0,.55,12.83-2.85,12.72-2.99-.09-1.64-13.45-1.64-13.45,0,0-.81,11.23-3.79,10.63-3.46-.7.55-19.96,3.51-20.79,0,0-.83-6.84,6.84-6.84s6.93,6.84,6.93,6.84Z"/>
            <path class="cls-28" d="m109.36,505.01s9.55,10.9,5.55,13.03c-1.75.93-5.55-4.16-5.55-4.16,0,0,5.31,12.96,1.85,13.77-3.65.86-6.38-11.74-6.38-11.74,0,0,3.47,15.16-.83,15.16-4.01,0-3.64-15.16-3.64-15.16,0,0,.55,12.83-2.85,12.72-2.99-.09-1.64-13.45-1.64-13.45,0,0-.81,11.23-3.79,10.63-3.46-.7.55-19.96,3.51-20.79,0,0-.83-6.84,6.84-6.84s6.93,6.84,6.93,6.84Z"/>
          </g>
          <g>
            <path class="cls-47" d="m143.49,375.63c-3.31,5.94-10.81,8.07-16.74,4.76-5.94-3.3-8.07-10.8-4.77-16.74,3.31-5.94,10.8-8.07,16.74-4.77,5.94,3.3,8.07,10.8,4.77,16.74Z"/>
            <path class="cls-47" d="m112.1,430.43c-2.46,4.42-8.04,6.01-12.46,3.55-4.42-2.46-6.01-8.03-3.55-12.45,2.46-4.42,8.03-6.01,12.46-3.55,4.42,2.46,6.01,8.03,3.55,12.45Z"/>
            <polygon class="cls-47" points="121.98 363.66 143.49 375.63 112.1 430.43 96.09 421.52 121.98 363.66"/>
          </g>
          <path class="cls-64" d="m250.81,357.36c-12.14-4.92-51.58-9.67-58.4-10.46v-.12s-.18.02-.51.06c-.33-.04-.51-.06-.51-.06v.12c-6.82.8-46.26,5.54-58.4,10.46,0,0-11.09,93.47-7.21,163.8,0,0,7.61,5.41,65.76,5.46h0c.12,0,.23,0,.36,0h.36c58.14-.05,65.76-5.46,65.76-5.46,3.88-70.33-7.21-163.8-7.21-163.8Z"/>
          <g>
            <g>
              <g>
                <path class="cls-50" d="m192.26,333.12h-27.36c6.69,8.76,9.62,31.74,9.62,31.74l17.38,15.74,18.1-15.74s2.92-22.99,9.62-31.74h-27.37Z"/>
                <path class="cls-26" d="m192.41,333.12h-27.36c6.69,8.76,9.62,31.74,9.62,31.74l17.74,12.47,17.74-12.47s2.92-22.99,9.62-31.74h-27.37Z"/>
                <path class="cls-29" d="m192.26,333.12h-27.36c6.69,8.76,9.62,31.74,9.62,31.74l18.6,14.04,16.89-14.04s2.92-22.99,9.62-31.74h-27.37Z"/>
              </g>
              <path class="cls-16" d="m164.89,333.12c1.69,2.22,3.14,5.34,4.37,8.77h0s.71,1.9,1.3,4.01c0,0,27.73,3.09,44.12-2.33l.56-1.68h0c1.23-3.43,2.68-6.56,4.38-8.77h-54.73Z"/>
            </g>
            <path class="cls-68" d="m180.88,363.66l12.35,5.39-2.02,164.17s-48.39-1.04-65.44-12.05l29.09-160.46,26.01,2.95Z"/>
            <path class="cls-69" d="m203.73,363.66l-12.35,5.39-2.31,162.02s52.73,1.11,69.77-9.91l-29.09-160.46-26.01,2.95Z"/>
            <path class="cls-48" d="m170.77,346.64s-15.18,3.4-12.51,25.73c0,0,4.71-13.34,33.45-3.99,0,0-19.71-13.49-20.93-21.74Z"/>
            <path class="cls-48" d="m213.73,346.64s15.18,3.4,12.51,25.73c0,0-4.71-13.34-33.45-3.99,0,0,19.71-13.49,20.93-21.74Z"/>
            <polygon class="cls-48" points="191.71 368.38 187.3 533.08 191.21 533.22 192.26 368.62 191.71 368.38"/>
            <circle class="cls-59" cx="195.91" cy="377.9" r="1.78"/>
            <circle class="cls-59" cx="195.91" cy="405.9" r="1.78"/>
            <circle class="cls-59" cx="195.91" cy="433.89" r="1.78"/>
            <circle class="cls-59" cx="195.91" cy="461.88" r="1.78"/>
            <circle class="cls-59" cx="195.91" cy="489.88" r="1.78"/>
            <circle class="cls-59" cx="195.91" cy="517.87" r="1.78"/>
            <g>
              <g class="cls-14">
                <path class="cls-54" d="m224.82,389.55c0,.14.03.28.12.38.2.25.57.33.87.37.68.1,1.38,0,2.04.18.29.08.56.23.76.45.21.23.36.52.6.74.19.17.45.28.71.25.22-.02.45-.16.49-.4.03-.2-.02-.41-.03-.61,0-.03,0-.07,0-.1,0,0,0-.02.02-.02,0,0,0,0,0,0-1.21-1.56-3.81-.62-5.59-1.25"/>
                <path class="cls-54" d="m235.7,400.97s-.02.03-.04.03c-.03,0-.07,0-.1,0-.07,0-.12.1-.06.15.09.07.09.21.01.29-.04.04-.1.07-.16.08-.03,0-.06,0-.1,0-.02,0-.07-.01-.08-.04-.01-.02,0-.07,0-.09,0-.05,0-.1,0-.16,0-.1.01-.2.02-.29.01-.2.03-.4.05-.59.02-.22.05-.43.08-.64,0,0,0,.01,0,.02,0,0,0-.01,0-.02.02-.18.05-.35.08-.52.02-.1.03-.19.05-.29.01-.07.02-.15.06-.22,0-.01.02-.03.03-.04.02-.02.06-.02.07.01.01.03.02.07.03.1.27-1.15.2-2.41-.12-3.59-.14-.35-.76-.55-.83-1.04-.35-1.31-1.11-2.83-2.56-2.76-.17,0-.29.14-.45.27,0,0,.01,0,.02,0,0,0,0,0,0,0,0,.17.02.34.03.5.03.32.07.63.13.94,0,.01,0,.02-.02.02-.38.03-.75.05-1.13.03,0,0-.02,0-.02-.01-.05-.18-.09-.36-.1-.55,0,0,0,0,0-.01.01-.02.02-.05,0-.09,0-.01-.01-.03-.01-.04,0-.02,0-.04,0-.06,0-.01,0-.03,0-.04.05,0,.1,0,.15,0,.06,0,.1-.06.08-.12,0-.07,0-.13,0-.2.02-.06-.03-.11-.08-.11-.19,0-.38,0-.57,0-.04,0-.08.03-.09.06-.06.35-.05.71.03,1.07.02.08.04.17.07.25.02.06.05.07.11.09.05.01.1.02.15.03.09.02.18.04.28.06.05,0,.09.02.14.03.04,0,.08.01.12.03.03.01.03.04.03.06,0,.12-.02.25.03.37,0,.01,0,.03-.02.03-.17.02-.34.04-.5.08,0,0-.01-.01-.02-.02,0-.11-.03-.22-.1-.31-.08-.1-.23-.16-.35-.11-.03.01-.06.03-.09.05-.04.04-.03.09-.04.14,0,.09,0,.18-.01.27,0,.18,0,.37.02.55,0,.08.12.19.25-.1.43.11.35.09.78.19,0,.16-.03.32-.06.48,0,.03,0,.09-.04.11-.03.03-.09.04-.13.05l-.35.11s-.07.06-.06.11c.03.09.05.19.08.28.02.08.04.18.12.23.08.04.18,0,.26-.01.09-.02.18-.05.28-.07.09-.02.18-.05.28-.07.08-.02.17-.03.22-.1.06-.07.04-.17.04-.26,0-.1,0-.19,0-.29,0-.2,0-.41.03-.61,0,0,0-.02.02-.02.24.02.48.02.72,0,.13,0,.27-.02.4-.04.1-.02.21-.06.27-.15.04-.07.05-.15.05-.23,0-.02.02-.03.03-.01.13.18.27.35.43.51.16.15.34.28.5.42.15.13.29.28.4.44.13.18.31.49.39.69,0,.01,0,.02-.01.03-.32.78-.46,1.64-.45,2.49,0,.44.05.87.14,1.3,0,.01,0,.02-.02.02-.46-.04-.92-.04-1.38-.01-.04,0-.08.03-.09.06-.09.46-.18.91-.27,1.37,0,.05.02.12.09.11.15-.02.3-.04.45-.05.05,0,.11-.05.09-.11-.07-.2-.08-.43.03-.61.1-.17.27-.26.47-.25.05,0,.1.02.14.04.01,0,.01.02,0,.03-.16.12-.27.3-.33.49-.04.12-.04.25-.02.38.02.16.1.3.1.46,0,.04.03.07.07.07.13,0,.25,0,.38.01.07,0,.14-.1.04-.16-.04-.02-.06-.06-.05-.1.02-.12-.04-.28-.04-.43,0-.06.03-.09.07-.13.1-.09.22-.17.34-.24.01,0,.03,0,.03.01.03.27.05.54.08.82,0,.07,0,.16.05.21.05.05.12.07.18.06.08,0,.17-.02.25-.03.01,0,.02.01.02.02-.01.04-.03.09-.04.13.68.01.55-.74.6-1.37,0,0-.01.02-.02.03,0,0-.01.02-.02.03"/>
                <path class="cls-62" d="m232.63,388.31c-.62-.41-.69.76-.83,1.18-.21.48-1.04.35-1.18.97.55,0,1.18.07,1.66-.28.55-.41.97-1.38.35-1.87"/>
                <path class="cls-62" d="m238.5,398.95c-.76,1.72-.88,3.27-1.22,5.07.15-.16.28-.33.4-.51.12-.17.23-.34.32-.53.2-.38.42-.76.6-1.15.22-.48.36-.98.49-1.49.14-.53.28-1.05.38-1.59.21-1.09.2-2.2.08-3.29-.03-.33-.08-.65-.12-.98-.3.52-.62,1.02-.8,1.56-.41.97.28,2.07-.14,2.9"/>
                <path class="cls-62" d="m230.07,384.65c-.14,0-.21.07-.14.14,3.73,1.31,7.12,4.01,8.57,7.74-.48-4.15-4.42-7.53-8.43-7.88"/>
                <path class="cls-54" d="m235.05,403.79c-.55.62-.35,2.07-1.31,2.14-1.76.14-3.58-.06-5.3.25.36.08.72.16,1.08.22.81.14,1.64.23,2.47.19.68-.03,1.35-.21,1.99-.44.66-.24,1.31-.55,1.9-.93.13-.08.26-.17.38-.26,0,0,.02,0,.02-.02.23-.24.48-.46.73-.68.08-.07.15-.14.22-.21-.48-.69-1.6-.81-2.19-.28"/>
                <path class="cls-62" d="m238.93,388.73c.14.05.07,0,.2.08.04.02.59.22.61.18.03-.05-.39-.43-.43-.45-.57-.43-1-.68-1.66-.94-.04-.02-.08-.03-.13-.05.22.34.47.66.72.98.22.05.44.12.68.2"/>
                <path class="cls-62" d="m236.89,385.04c.1,0,1.09-.06-.02-.39-.46-.13-1.67-.12-2.27-.07.31.14.61.3.9.48.36-.02,1.21-.03,1.39-.03"/>
                <path class="cls-54" d="m233.69,383.32c.28-.17.56-.34.84-.5.09-.05.54-.46-.18-.31-.6.13-1.08.41-1.64.66-.46.21-.93.42-1.32.73.43.02.87.07,1.29.14.32-.27.66-.5,1.01-.72"/>
                <path class="cls-62" d="m239.97,392.73s.06-.32.06-.37c-.01-.28,0-.59-.15-.84-.06-.1-.17-.24-.28-.37.09.43.15.87.19,1.32.08.13.16.26.18.25"/>
                <path class="cls-54" d="m235.86,383.62c.11-.03.76-.46-.41-.29-.08.01-.56.13-.63.15-.56.15-.63.2-1.18.4-.31.11-.25.08-.56.21-.01,0-.03.01-.04.02.33.07.66.15.97.25.71-.32,1.79-.73,1.85-.74"/>
                <path class="cls-54" d="m240.23,390.95c-.31-.42-.59-.71-1.02-.96.27.06.55.14.8.26.49.25.15-.14.09-.22-.39-.5-1.07-.94-1.64-1.23.09.11.17.23.26.34.38.5.63,1.05.79,1.63.21.1.39.23.6.42.03.03.27.22.31.2.03-.03-.15-.4-.18-.44"/>
                <path class="cls-56" d="m238.99,391.36c.23.3.47.45.62.81,0,.02.09.17.17.31-.03-.45-.09-.89-.19-1.32-.09-.1-.18-.19-.24-.25l-.34-.3s0-.03.02-.03c.17.06.32.12.46.19-.17-.58-.41-1.13-.79-1.63-.08-.12-.17-.23-.26-.34-.03-.02-.06-.03-.09-.05-.26-.13-.45-.23-.59-.3.17.02.32.04.47.08-.25-.32-.5-.65-.72-.98-.2-.07-.42-.12-.63-.15l-.14-.02s-.02,0-.02,0c0,0,.02,0,.04,0,.21,0,.43,0,.65.03-.11-.17-.21-.35-.31-.54-.07-.13-.14-.24-.21-.36-1-.29-1.72-.34-2.1-.33.2-.01.56-.03,1.18-.07.19-.01.43.01.67.05-.19-.25-.41-.47-.64-.67-.02,0-.05,0-.07,0-.74-.06-1-.1-1.57-.06-.16.01-.28.03-.37.05.43-.19.89-.32,1.35-.37.03,0,.07,0,.13,0-.28-.19-.58-.35-.9-.48-.06,0-.11.01-.16.02-.51.06-1.01.19-1.48.39.17-.13.34-.25.54-.37.11-.07.29-.16.51-.26-.31-.1-.64-.19-.97-.25-.29.13-.71.39-.99.57.1-.12.2-.23.32-.34.1-.1.21-.2.32-.29-.42-.07-.86-.11-1.29-.14-.08.06-.16.13-.23.21-.21.21-.36.29-.36.29,0,0,.02-.1.15-.3.01-.02.05-.06.17-.21-.42-.02-.83-.02-1.25-.01-.16.14-.32.28-.48.43-.15.15-.3.29-.45.45-.05.05-.09.1-.13.14-.03.03-.05.06-.08.09-.03.03-.11.09-.16.09-.1,0-.19.01-.28.06-.07.03-.12.09-.18.14-.1.1-.18.23-.29.31-.16.1-.33.02-.5-.02-.1-.02-.21-.04-.31-.01-.09.02-.17.06-.23.12-.32.26-.31.7-.43,1.06-.03.09-.08.17-.13.24-.18.23-.45.37-.69.54-.18.13-.36.27-.53.42-.15.14-.3.29-.4.47-.1.17-.15.37-.11.56.04.17.16.32.31.39,0,0,0,0,0,0,.02,0,.03.01.05.02-.03.06-.04.12-.05.18,1.78.63,4.37-.31,5.59,1.25.15,0,.31.08.4.21.12.17.57.61.9.6.15-.13.28-.27.45-.27,1.45-.07,2.21,1.45,2.56,2.76.07.48.69.69.83,1.04.32,1.18.39,2.44.12,3.59.08.25.14.5.17.76.03.34.03.68.02,1.02,0,.14-.02.28-.11.4-.04.63.09,1.38-.59,1.37-.15.41-.48.73-.83.98-.46.33-.99.56-1.53.73-.56.17-1.14.27-1.72.32-.32.03-.64.05-.97.06-.07.14-.21.24-.37.32-1.04.48-2.07-.21-2.97-.62-.21-.07-.48-.35-.62-.55-.9-.9-1.11-2.21-.76-3.46.21-.69.97-1.24,1.45-.69.55.69.07,1.72.27,2.69.12-.07.18-.2.19-.34.02-.21-.03-.44-.04-.65-.03-.33-.06-.66-.08-.98-.03-.27-.04-.55-.08-.83-.02-.16-.06-.33-.21-.42-.16-.1-.37-.07-.54-.04-.17.03-.34.07-.51.13-.19.07-.39.16-.56.27-.15.1-.27.24-.34.41-.07.18-.1.38-.12.57-.02.19-.03.39-.03.58,0,.38.06.76.15,1.13.18.77.51,1.5.88,2.2.18.34.36.68.57,1,.2.31.45.57.79.73.36.16.75.24,1.13.33.05.01.1.02.15.03,1.72-.31,3.54-.11,5.3-.25.97-.07.76-1.52,1.31-2.14.59-.53,1.7-.41,2.19.28.02-.02.03-.03.05-.05.34-1.8.46-3.35,1.22-5.07.41-.83-.28-1.94.14-2.9.18-.54.5-1.04.8-1.56-.11-.78-.25-1.56-.37-2.34l-.03-.19s0,0,0,0c-.02-.2-.04-.39-.08-.59,0-.02.02-.03.03-.01m-6.71-1.18c-.48.35-1.11.28-1.66.28.14-.62.97-.48,1.18-.97.14-.41.21-1.59.83-1.18.62.48.21,1.45-.35,1.87m-2.35-5.39c-.07-.07,0-.14.14-.14,4.01.35,7.95,3.73,8.43,7.88-1.45-3.73-4.84-6.43-8.57-7.74"/>
                <path class="cls-62" d="m231.13,383.89s.07-.08.11-.14c.26-.33.59-.62.91-.88.16-.13.75-.56.77-.58.16-.13.59-.55-.34-.23-.02,0-.28.13-.28.14-.72.38-1.29.77-1.93,1.27-.17.13-.33.27-.5.41.41,0,.83,0,1.25.01"/>
                <path class="cls-54" d="m237.43,387.39c.29.02.59.06.85.1.2.03.26.02.46.05.04,0,.53.1.55.05.02-.04-.6-.4-.64-.42-.65-.31-1.23-.53-1.75-.68.07.12.15.23.21.36.09.19.2.36.31.54"/>
                <path class="cls-54" d="m236.66,386.14c.4.06.78.16.89.19.92.25.2-.24.12-.28-.49-.26-1.1-.53-1.65-.59.23.2.44.42.64.67"/>
                <path class="cls-54" d="m226.82,399.37c-.48-.55-1.24,0-1.45.69-.35,1.24-.14,2.56.76,3.46.14.21.41.48.62.55.9.41,1.94,1.11,2.97.62.16-.08.29-.18.37-.32-.28,0-.56,0-.84,0-.61-.02-1.23-.1-1.8-.34-.46-.2-.89-.5-1.18-.91-.15-.21-.27-.44-.33-.7-.08-.3-.09-.61-.11-.92-.03-.56-.03-1.18.3-1.67.02-.02.03-.05.05-.07.07-.09.16-.19.27-.24.04-.02.09-.03.13,0,.05.03.06.11.07.16.04.16.07.32.1.48.05.32.07.65.07.97,0,.15,0,.32-.02.47,0,.05-.03.09-.06.11-.03.01-.07,0-.11-.02-.08-.04-.16-.11-.21-.18,0,0,0,0,0,0,0-.02-.02-.03-.03-.04-.07-.07-.2,0-.14.1,0,.01.02.03.03.04,0,0,0,0,0,0,.08.15.17.29.3.39.12.09.3.13.45.08.03,0,.05-.02.07-.03-.2-.97.28-2-.27-2.69"/>
                <path class="cls-53" d="m228.1,404.08c0,.61.12,1.06.13,1.46.01.37-.18.47.08.75.06.06.58.01.52-.05-.25-.27-.23-.81-.24-1.17-.01-.38-.35-.65-.24-1.02.02-.08-.22-.05-.24.03"/>
                <path class="cls-53" d="m228.79,404.16c-.19.78.32,1.51.27,2.32,0,.11.29.03.24-.07-.35-.7-.07-1.12-.26-2.27-.02-.11-.22-.08-.25.02"/>
                <path class="cls-53" d="m234.16,406.35c-.14-.53-.79-1.12-1.11-1.56-.16-.22-.23-.36-.43-.56-.19-.19-.4-.41-.69-.41-.04,0-.13.02-.15.07-.01.05.07.06.1.06.13,0,.32.11.41.19.09.08.29.38.38.47.17.18.16.2.3.41.28.42.61.71.75,1.19.02.08.15.21.13.13h.31Z"/>
                <path class="cls-53" d="m232.71,403.55c.29.09.7.54.94.71.25.17.51.31.72.54.38.42.48.78.55,1.34,0,.06-.01.12-.04.17,0,.02-.06.08-.06.03-.08-.56-.44-.56-.82-.98-.21-.23-.98-1.08-1.23-1.26-.24-.17.15-.22-.13-.31-.05-.02.02-.26.07-.24"/>
                <path class="cls-53" d="m225.24,403.33c.31-.03.3-.43.51-.57.11-.07.26-.06.38-.05.16,0,.31.02.47,0,.03,0,.14-.03.14-.07,0-.04-.08-.03-.1-.03-.17.02-.35,0-.52,0-.17,0-.56,0-.71.09-.27.15-.17.46-.4.65-.04.04.04.05.06.05.06,0,.12-.02.16-.06"/>
                <path class="cls-53" d="m225.06,402.64c.33-.27.75-.35,1.16-.26.05.01.12-.01.17-.03.02,0,.08-.05.03-.06-.54-.12-.87-.25-1.58.37-.04.04.04.04.06.03.05,0,.12-.02.16-.06"/>
                <path class="cls-53" d="m226.4,399.69c.13-.19.51-.1.61-.33.05-.12-.01-.44-.06-.56-.05-.11-.14-.19-.26-.21-.05-.01-.13.01-.17.05-.04.03-.03.06.02.07.09.02.29.08.32.16.04.11.04.21,0,.32-.07.17-.32.35-.49.43-.03.01-.08.05-.05.09.03.04.06,0,.09,0"/>
                <path class="cls-53" d="m226.57,400.03c.22-.09.43-.23.61-.38.16-.13.27-.28.26-.49,0-.05-.25-.01-.24.07,0,.18.06.2-.07.32-.15.13-.49-.06-.65.41,0,.02-.1.04-.07.08.03.03.13,0,.16,0"/>
                <path class="cls-53" d="m230.65,390.41c.05-.28.38-.33.6-.44.2-.1.39-.24.54-.41.14-.17.26-.37.32-.58.08-.27.13-.35.13-.63,0-.22-.26-.43-.26-.34.01.28-.03.77-.12,1.04-.07.22-.2.42-.36.59-.18.18-.38.27-.61.37-.2.08-.23.14-.27.37-.02.08.03.12.04.04"/>
                <path class="cls-53" d="m226.78,401.43c0-.11-.1-.17-.19-.22-.11-.06-.26-.07-.36.01-.05.04-.05.11-.05.17,0,.06,0,.13.02.19.02.13.06.25.06.38,0,.02.02.03.05.03,0,.06.01.12.04.17.02.03.05.05.08.05,0-.11,0-.24.04-.34.02-.03.06-.01.09-.03.02-.01.06-.03.05-.07,0-.03,0-.05-.01-.07-.02-.1-.04-.12-.02-.22.01-.05.09-.03.08.02-.01.05.06.12.05.17,0,.04.06.11.07.15.01.05-.02.07-.04.11-.04.06-.19.08-.21.16,0,.03-.01.07-.02.11,0,0,0,0,0,0,.69.13.35-.13.41-.28.07-.2-.12-.27-.14-.48"/>
                <path class="cls-53" d="m234.52,396.07c.52,0,1-.14,1.52-.24.52-.1,1-.46,1.47-.67.04-.02.1-.06.06-.1-.03-.04-.23.1-.27.12-.23.11-.35.09-.57.19-.22.1-.45.2-.69.24-.48.09-.98.05-1.46.04-.27,0-.25.1-.28.15-.02.05-.02.16.03.16l.19.11Z"/>
                <path class="cls-53" d="m233.33,394.78c.08-.07.35-.13.44-.16.22-.07.23-.1.45-.22.1-.06.09-.06.2-.09.13-.03.15-.05.28-.03.43.06.98,0,1.31-.29.04-.03.26-.18.21-.19-.05-.01-.17.05-.38.2-.18.13-.46.12-.7.13-.11,0-.27,0-.38-.03-.13-.02-.2-.01-.33,0-.12,0-.22.05-.33.09-.11.04-.2.05-.32.04-.2,0-.5.18-.66.32-.04.03-.03.06.02.07.05.01.08-.02.12-.05l.06.2Z"/>
                <path class="cls-53" d="m234.14,395.42s.05-.04.07-.06c.01-.02,0-.09,0-.09.04-.01.16-.08.21-.09.15-.02.29,0,.44-.04.15-.04.25-.13.26-.18.01-.05-.14.09-.27.11-.19.04-.5-.02-.69,0-.18.03-.18.06-.23.26,0,0,0,0,0,0-.02.08.07.14.14.11l.07-.04Z"/>
                <path class="cls-52" d="m227.09,386.36s0-.02,0-.03l.04.05s-.03-.01-.05-.02c0,.02.01.04.06.06.06.03.14.02.2,0,.05-.01.1-.03.13-.07.04-.04.05-.05.04-.09,0-.02.03-.04.02-.06-.03-.04-.08-.06-.14-.07-.04,0-.09-.01-.14-.01-.06,0-.13.03-.17.07-.04.04-.06.09-.05.14,0,.02.02.03.04.03"/>
                <path class="cls-52" d="m227.1,386.32s0,.02,0,.03c.02,0,.04,0,.05.02l-.04-.05Z"/>
                <path class="cls-52" d="m227.11,386.44c.07.02.15.02.22.01,0,0,0,0,0,0,0,0,0,0,.01,0,0,0,.01,0,.02,0,0,0,.01,0,.02,0,0,0,.01,0,.02-.01,0,0,.02-.01.02-.02.02-.02.05-.03.07-.05.03-.03.06-.06.07-.09,0-.02,0-.04-.01-.05-.02-.02-.05-.02-.08-.01-.05,0-.1.03-.14.06,0,0,0,0,0,0,0,0,0,0,0,0,0,0-.02,0-.03,0-.03,0-.07,0-.1,0-.03,0-.07.02-.1.03-.03.02-.06.04-.06.07,0,.03.04.05.07.06m.22-.18h0,0m0,0h0s0,0,0,0c0,0,0,0,0,0"/>
                <path class="cls-52" d="m224.8,389.42c.29,0,.59-.02.87-.1.28-.07.59-.18.86-.3.26-.11.49-.32.73-.48.24-.17.56-.38.77-.59.04-.04-.09-.05-.14-.06-.06-.02-.21.04-.25.08-.19.19-.31.28-.53.44-.21.15-.4.42-.63.53-.23.11-.51.19-.75.26-.27.08-.45.13-.72.13-.05,0-.12-.01-.18,0,0,0-.05.06-.05.07,0,0,.04.01.04.01"/>
                <path class="cls-60" d="m233.29,394.42s.02.03.03.04c-.01-.01-.02-.03-.03-.04,0,0,0,0,0,0"/>
              </g>
              <g>
                <path class="cls-59" d="m219.88,396.99c.08.18.15.37.21.56.05.19.1.38.12.58-.34.12-.64.2-.9.24-.27.04-.56.06-.87.06-.55,0-1.03-.09-1.44-.27-.41-.18-.76-.43-1.04-.74-.28-.32-.49-.7-.63-1.14-.14-.44-.21-.92-.21-1.43s.07-.99.22-1.44c.15-.44.36-.82.64-1.15.28-.32.63-.57,1.03-.75.41-.18.88-.27,1.4-.27.31,0,.6.02.86.06.26.04.54.12.85.24-.01.19-.05.38-.12.57-.06.18-.14.37-.21.56-.23-.08-.43-.13-.6-.16-.17-.03-.38-.05-.62-.05-.62,0-1.09.2-1.43.6-.33.4-.5,1-.5,1.79,0,1.57.67,2.36,2,2.36.24,0,.45-.02.63-.05.18-.03.38-.09.61-.16"/>
                <path class="cls-59" d="m222.88,391.35c.14-.02.26-.03.39-.04.12,0,.26-.01.41-.01.13,0,.25,0,.38.01.12,0,.26.02.41.04l2.18,6.96c-.26.04-.52.06-.77.06s-.48-.02-.72-.06l-.39-1.39h-2.3l-.4,1.39c-.23.04-.45.06-.67.06-.24,0-.47-.02-.71-.06l2.2-6.96Zm1.55,4.39l-.8-2.92-.84,2.92h1.64Z"/>
                <path class="cls-59" d="m216.42,399.19c.27-.03.55-.06.85-.08.3-.02.63-.03.99-.03,1.22,0,2.15.3,2.78.91.64.61.95,1.52.95,2.73s-.32,2.12-.97,2.69c-.64.57-1.6.86-2.87.86-.33,0-.63-.01-.91-.03-.28-.02-.55-.05-.82-.08v-6.96Zm1.42,5.83c.06,0,.13.01.22.02.09,0,.2,0,.33,0,.3,0,.57-.03.83-.1.25-.07.48-.19.66-.37.19-.18.34-.42.44-.73.11-.3.16-.69.16-1.17s-.05-.85-.16-1.16-.26-.55-.44-.74c-.19-.18-.4-.31-.64-.38-.24-.07-.5-.11-.77-.11-.09,0-.2,0-.31,0-.12,0-.22.01-.31.02v4.7Z"/>
                <path class="cls-59" d="m223.16,399.19c.24-.04.47-.06.71-.06s.47.02.72.06v6.96c-.25.04-.48.06-.71.06-.24,0-.48-.02-.72-.06v-6.96Z"/>
                <path class="cls-59" d="m222.27,407.02c.12-.02.24-.03.36-.04.12,0,.24,0,.36,0,.11,0,.22,0,.34,0,.12,0,.24.02.36.04v3.61c0,.39.01.73.04,1.01.03.28.09.51.17.7.09.18.21.32.37.41.16.09.36.13.61.13s.45-.04.61-.13c.15-.09.28-.22.36-.41.09-.18.15-.42.17-.7.03-.28.04-.62.04-1.01v-3.61c.13-.02.25-.03.37-.04.12,0,.23,0,.34,0,.12,0,.23,0,.35,0,.12,0,.24.02.36.04v3.91c0,.47-.04.9-.12,1.29-.08.39-.22.72-.42,1-.2.28-.47.49-.8.64-.34.15-.76.23-1.28.23s-.94-.08-1.28-.23c-.34-.15-.6-.37-.8-.64-.2-.28-.34-.61-.42-1-.08-.39-.12-.82-.12-1.29v-3.91Z"/>
                <path class="cls-59" d="m228.8,407.02h3.95c.04.19.06.39.06.59,0,.21-.02.42-.06.61h-2.53v1.51h2.01c.04.21.06.41.06.6,0,.21-.02.41-.06.61h-2.01v1.84h2.6c.04.19.06.39.06.59,0,.21-.02.42-.06.61h-4.01v-6.96Z"/>
                <path class="cls-59" d="m220.88,413.08c.25-.32.43-.7.55-1.13.12-.44.18-.91.18-1.43s-.06-.99-.18-1.44c-.12-.44-.3-.82-.55-1.15-.25-.32-.56-.57-.94-.75-.38-.18-.83-.27-1.35-.27s-.97.09-1.35.27c-.38.18-.69.43-.94.75-.25.32-.43.7-.55,1.15-.12.44-.18.92-.18,1.44s.06.99.18,1.43c.12.44.3.81.55,1.13.25.32.56.57.94.75.38.18.83.27,1.35.27.19,0,.37-.01.54-.04l2.14.34c.07-.17.12-.36.15-.56.03-.2.05-.39.07-.58l-.68-.11s.05-.06.07-.09m-3.8-2.56c0-1.6.51-2.4,1.52-2.4.51,0,.89.2,1.13.6.24.4.36,1,.36,1.8,0,1.6-.5,2.4-1.5,2.4s-1.51-.8-1.51-2.4"/>
                <path class="cls-59" d="m229.98,392.05s-.03,0-.05,0c-.03,0-.06,0-.09,0-.25,0-.5-.1-.7-.28-.14-.13-.25-.28-.36-.43-.03-.04-.05-.07-.08-.11-.15,0-.3.01-.43.03-.25.02-.51.05-.8.08v6.96c.13.02.25.03.38.04.12,0,.24,0,.35,0s.22,0,.34-.01c.12,0,.23-.02.35-.03v-5.87c.12-.02.24-.03.39-.03.27,0,.49.05.69.15,0-.17,0-.33.02-.5"/>
              </g>
            </g>
          </g>
          <g>
            <g>
              <path class="cls-47" d="m90.07,506.33c.22-6.8,5.9-12.13,12.69-11.91,6.79.22,12.12,5.89,11.91,12.69"/>
              <path class="cls-47" d="m94.94,425.52c.16-5.06,4.39-9.03,9.44-8.86,5.05.16,9.02,4.38,8.86,9.44-.16,5.06-4.39,9.02-9.44,8.86-5.06-.16-9.02-4.39-8.86-9.44Z"/>
              <polygon class="cls-47" points="114.67 507.11 90.07 506.33 94.94 425.52 113.24 426.1 114.67 507.11"/>
            </g>
            <path class="cls-48" d="m89.25,505.63s.14,2.29.49,3.74c0,0,16.01,1.18,25.43.63,0,0,.41-2.57.35-3.74,0,0-19.75,0-26.26-.62Z"/>
          </g>
          <g>
            <path class="cls-50" d="m326.64,317.04s-5.19-13.53-.7-14.14c1.96-.27,3.76,5.82,3.76,5.82,0,0-.5-14,3.03-13.56,3.72.46,1.92,13.22,1.92,13.22,0,0,1.98-15.43,6.02-13.94,3.76,1.39-1.83,15.48-1.83,15.48,0,0,3.92-12.22,7.07-10.95,2.78,1.12-3.11,13.19-3.11,13.19,0,0,4.65-10.25,7.23-8.66,3,1.85-7.42,18.54-10.49,18.29,0,0-1.58,6.7-8.78,4.05-7.2-2.65-4.14-8.81-4.14-8.81Z"/>
            <path class="cls-27" d="m326.64,317.04s-5.19-13.53-.7-14.14c1.96-.27,3.76,5.82,3.76,5.82,0,0-.5-14,3.03-13.56,3.72.46,1.92,13.22,1.92,13.22,0,0,1.98-15.43,6.02-13.94,3.76,1.39-1.83,15.48-1.83,15.48,0,0,3.92-12.22,7.07-10.95,2.78,1.12-3.11,13.19-3.11,13.19,0,0,4.65-10.25,7.23-8.66,3,1.85-7.42,18.54-10.49,18.29,0,0-1.58,6.7-8.78,4.05-7.2-2.65-4.14-8.81-4.14-8.81Z"/>
          </g>
          <g>
            <g>
              <path class="cls-46" d="m321.05,314.52c-2.49,6.32.61,13.47,6.93,15.96,6.32,2.49,13.47-.61,15.96-6.93"/>
              <path class="cls-46" d="m293.52,390.64c-1.86,4.71.45,10.03,5.16,11.88,4.7,1.86,10.02-.45,11.87-5.16,1.86-4.71-.45-10.03-5.16-11.88-4.71-1.86-10.02.46-11.88,5.16Z"/>
              <polygon class="cls-46" points="343.95 323.55 321.05 314.52 293.52 390.64 310.55 397.36 343.95 323.55"/>
            </g>
            <path class="cls-48" d="m320.03,314.83s1.03-2.04,1.93-3.24c0,0,15.17,5.26,23.6,9.5,0,0-.63,2.52-1.16,3.57,0,0-18.14-7.82-24.36-9.83Z"/>
          </g>
        </g>
        <g>
          <g>
            <path class="cls-50" d="m308.91,227.7c0,16.63,9.79,26.43,26.43,26.43s33.8-9.8,33.8-26.43-13.48-30.12-30.12-30.12-30.12,13.48-30.12,30.12Z"/>
            <path class="cls-15" d="m308.91,227.7c0,16.63,9.79,26.43,26.43,26.43s33.8-9.8,33.8-26.43-13.48-30.12-30.12-30.12-30.12,13.48-30.12,30.12Z"/>
            <path class="cls-30" d="m347.21,229.78s13.33,1.91,9.64,8.06c-3.69,6.15-24.12,13.47-33.03,1.28,0,0,9.54-.68,6.53-10.43,0,0,6.75-1.44,16.86,1.09Z"/>
            <path class="cls-51" d="m356.85,233.69c-11.92-6.03-26.15-7.39-38.88-3.23,0,0,2.38-.8,2.38-.8,11.96-3.93,25.61-2.18,36.5,4.03h0Z"/>
            <path class="cls-51" d="m330.43,227.77c2.39,7.05-.86,11.62-8.31,11.46,7.14-.17,10.21-4.44,7.62-11.17,0,0,.69-.29.69-.29h0Z"/>
            <path class="cls-31" d="m308.91,227.7c0,16.63,9.79,26.43,26.43,26.43s33.8-9.8,33.8-26.43-13.48-30.12-30.12-30.12-30.12,13.48-30.12,30.12Z"/>
          </g>
          <g>
            <path class="cls-50" d="m75.91,227.7c0,16.63-9.79,26.43-26.43,26.43-16.63,0-33.8-9.8-33.8-26.43,0-16.64,13.48-30.12,30.12-30.12,16.63,0,30.12,13.48,30.12,30.12Z"/>
            <path class="cls-40" d="m75.91,227.7c0,16.63-9.79,26.43-26.43,26.43-16.63,0-33.8-9.8-33.8-26.43,0-16.64,13.48-30.12,30.12-30.12,16.63,0,30.12,13.48,30.12,30.12Z"/>
            <path class="cls-33" d="m37.61,229.78s-13.33,1.91-9.64,8.06c3.69,6.15,24.12,13.47,33.03,1.28,0,0-9.54-.68-6.53-10.43,0,0-6.75-1.44-16.86,1.09Z"/>
            <path class="cls-51" d="m27.97,233.69c10.89-6.21,24.54-7.95,36.5-4.03,0,0,2.38.8,2.38.8-12.73-4.16-26.96-2.8-38.88,3.23h0Z"/>
            <path class="cls-51" d="m55.08,228.05c-2.13,5.22-.57,10.14,5.48,10.97,0,0,2.14.2,2.14.2l-2.15-.1c-6.35-.59-8.16-5.84-6.16-11.36,0,0,.69.29.69.29h0Z"/>
            <path class="cls-32" d="m75.91,227.7c0,16.63-9.79,26.43-26.43,26.43-16.63,0-33.8-9.8-33.8-26.43,0-16.64,13.48-30.12,30.12-30.12,16.63,0,30.12,13.48,30.12,30.12Z"/>
          </g>
          <path class="cls-50" d="m329.12,186.46c0,84.92-21.34,156.1-134.7,156.1-106.71,0-138.72-68.84-138.72-153.76S103.27,63.92,192.41,63.92s136.71,37.62,136.71,122.54Z"/>
          <path class="cls-35" d="m329.12,186.46c0,84.92-21.34,156.1-134.7,156.1-106.71,0-138.72-68.84-138.72-153.76S103.27,63.92,192.41,63.92s136.71,37.62,136.71,122.54Z"/>
          <g>
            <path class="cls-19" d="m190.43,253.54s-9.45-.95-10.33-9.21c-.88-8.26,7.93-11.01,3.22-33.73-4.69-22.72,6.23,18.32-18.65,40.85,0,0,16.55,2.79,25.75,2.08Z"/>
            <g>
              <path class="cls-20" d="m216.19,252.07s-2.23,15.67-23.78,17.56c-21.55,1.89-27.73-18.17-27.73-18.17,0,0,27.57,5.21,51.51.61Z"/>
              <path class="cls-51" d="m163.82,251.32c17.07,3.1,34.71,3.62,51.87.98,1.18-.22,4.1-.76,5.31-.98-18.69,4.44-38.45,4.05-57.18,0h0Z"/>
            </g>
            <path class="cls-6" d="m195.99,236.65s5.57,3.56,7.62,10.55c0,0,4.55-4.71,2.5-9.52-2.05-4.82-10.12-1.03-10.12-1.03Z"/>
          </g>
          <g>
            <path class="cls-21" d="m268.89,201.69c0,20.67-13.93,37.42-31.11,37.42s-31.13-16.76-31.13-37.42,13.93-37.42,31.13-37.42,31.11,16.76,31.11,37.42Z"/>
            <path class="cls-49" d="m268.89,200.59c0,20.06-13.93,36.32-31.11,36.32s-31.13-16.26-31.13-36.32,13.93-36.32,31.13-36.32,31.11,16.26,31.11,36.32Z"/>
            <path class="cls-39" d="m268.89,200.59c0,20.06-13.93,36.32-31.11,36.32s-31.13-16.26-31.13-36.32,13.93-36.32,31.13-36.32,31.11,16.26,31.11,36.32Z"/>
          </g>
          <g>
            <path class="cls-5" d="m251.32,200.59c0,8.74-6.06,15.82-13.55,15.82s-13.57-7.09-13.57-15.82,6.08-15.82,13.57-15.82,13.55,7.08,13.55,15.82Z"/>
            <path class="cls-41" d="m251.32,200.59c0,8.74-6.06,15.82-13.55,15.82s-13.57-7.09-13.57-15.82,6.08-15.82,13.57-15.82,13.55,7.08,13.55,15.82Z"/>
            <path class="cls-42" d="m246.68,200.59c0,5.75-3.99,10.41-8.91,10.41s-8.92-4.66-8.92-10.41,4-10.4,8.92-10.4,8.91,4.65,8.91,10.4Z"/>
            <path class="cls-4" d="m243.31,200.59c0,3.58-2.49,6.47-5.54,6.47s-5.56-2.9-5.56-6.47,2.49-6.47,5.56-6.47,5.54,2.89,5.54,6.47Z"/>
            <path class="cls-8" d="m251.32,200.59c0-8.74-6.06-15.82-13.55-15.82s-13.01,6.55-13.48,14.8l25.39,8.42c1.01-2.22,1.64-4.71,1.64-7.39Z"/>
            <path class="cls-49" d="m244.85,198.91c0,.54-.84.98-1.9.98s-1.92-.44-1.92-.98.85-.98,1.92-.98,1.9.44,1.9.98Z"/>
            <path class="cls-49" d="m244.03,202.12c-.07.28-.55.41-1.09.29-.55-.12-.94-.44-.88-.73.07-.28.55-.41,1.09-.29.55.12.94.44.88.72Z"/>
          </g>
          <g>
            <path class="cls-23" d="m173.91,203.96c0,20.66-13.92,37.42-31.11,37.42s-31.14-16.76-31.14-37.42,13.93-37.42,31.14-37.42,31.11,16.76,31.11,37.42Z"/>
            <path class="cls-49" d="m173.91,202.86c0,20.06-13.92,36.32-31.11,36.32s-31.14-16.27-31.14-36.32,13.93-36.32,31.14-36.32,31.11,16.26,31.11,36.32Z"/>
            <path class="cls-36" d="m173.91,202.86c0,20.06-13.92,36.32-31.11,36.32s-31.14-16.27-31.14-36.32,13.93-36.32,31.14-36.32,31.11,16.26,31.11,36.32Z"/>
          </g>
          <g>
            <path class="cls-5" d="m156.35,202.86c0,8.73-6.06,15.82-13.55,15.82s-13.57-7.09-13.57-15.82,6.08-15.82,13.57-15.82,13.55,7.08,13.55,15.82Z"/>
            <path class="cls-38" d="m156.39,202.86c0,8.73-6.06,15.82-13.55,15.82s-13.57-7.09-13.57-15.82,6.08-15.82,13.57-15.82,13.55,7.08,13.55,15.82Z"/>
            <path class="cls-37" d="m151.71,202.86c0,5.75-3.99,10.4-8.91,10.4s-8.92-4.66-8.92-10.4,4-10.4,8.92-10.4,8.91,4.65,8.91,10.4Z"/>
            <path class="cls-4" d="m148.34,202.86c0,3.58-2.49,6.48-5.54,6.48s-5.56-2.9-5.56-6.48,2.5-6.47,5.56-6.47,5.54,2.89,5.54,6.47Z"/>
            <path class="cls-7" d="m156.35,202.86c0-8.74-6.06-15.82-13.55-15.82s-13.01,6.55-13.48,14.8l25.39,8.42c1.01-2.22,1.64-4.71,1.64-7.39Z"/>
            <path class="cls-49" d="m149.88,201.19c0,.54-.84.98-1.9.98s-1.91-.44-1.91-.98.85-.98,1.91-.98,1.9.44,1.9.98Z"/>
            <path class="cls-49" d="m149.06,204.4c-.07.28-.55.41-1.09.29-.55-.12-.93-.44-.88-.72.06-.28.54-.41,1.09-.29.55.12.94.44.88.72Z"/>
          </g>
          <path class="cls-24" d="m259.07,163.01s-20.03-15.72-36.06-7.09c0,0,12.95-14.8,36.06,7.09Z"/>
          <path class="cls-24" d="m120.29,163.01s20.03-15.72,36.06-7.09c0,0-12.95-14.8-36.06,7.09Z"/>
          <g>
            <path class="cls-17" d="m91.12,240.87c0,.97-.99,1.76-2.22,1.76s-2.22-.79-2.22-1.76.99-1.76,2.22-1.76,2.22.79,2.22,1.76Z"/>
            <path class="cls-17" d="m103.06,246.45c0,1.19-1.21,2.15-2.71,2.15s-2.72-.96-2.72-2.15,1.21-2.15,2.72-2.15,2.71.96,2.71,2.15Z"/>
            <path class="cls-17" d="m106.39,239.11c0,.52-.53.94-1.19.94s-1.19-.42-1.19-.94.53-.94,1.19-.94,1.19.42,1.19.94Z"/>
            <path class="cls-17" d="m120.24,250.47c0,.69-.7,1.24-1.57,1.24s-1.57-.56-1.57-1.24.7-1.24,1.57-1.24,1.57.56,1.57,1.24Z"/>
            <path class="cls-17" d="m93.21,251.32c0,.46-.46.83-1.04.83s-1.05-.37-1.05-.83.47-.83,1.05-.83,1.04.37,1.04.83Z"/>
            <path class="cls-17" d="m108.57,255.65c0,.74-.75,1.33-1.68,1.33s-1.68-.6-1.68-1.33.75-1.33,1.68-1.33,1.68.6,1.68,1.33Z"/>
          </g>
          <g>
            <path class="cls-17" d="m286.72,239.35c0,.97.99,1.76,2.22,1.76s2.22-.79,2.22-1.76-.99-1.76-2.22-1.76-2.22.79-2.22,1.76Z"/>
            <path class="cls-17" d="m274.78,244.93c0,1.19,1.21,2.15,2.72,2.15s2.71-.96,2.71-2.15-1.21-2.15-2.71-2.15-2.72.96-2.72,2.15Z"/>
            <path class="cls-17" d="m271.45,237.59c0,.52.53.94,1.19.94s1.19-.42,1.19-.94-.53-.94-1.19-.94-1.19.42-1.19.94Z"/>
            <path class="cls-17" d="m257.6,248.96c0,.69.7,1.24,1.57,1.24s1.57-.56,1.57-1.24-.7-1.24-1.57-1.24-1.57.56-1.57,1.24Z"/>
            <path class="cls-17" d="m284.63,249.8c0,.46.47.83,1.04.83s1.04-.37,1.04-.83-.46-.83-1.04-.83-1.04.37-1.04.83Z"/>
            <path class="cls-17" d="m269.28,254.13c0,.74.75,1.33,1.68,1.33s1.68-.59,1.68-1.33-.75-1.33-1.68-1.33-1.68.6-1.68,1.33Z"/>
          </g>
          <path class="cls-22" d="m233.45,67.12c.81.96,1.4,1.55,1.4,1.55,0,0-.88-.67-2.3-1.71-12.27-2.03-25.64-3.04-40.14-3.04-15.88,0-30.42,1.29-43.63,3.86.32,1.45.57,2.37.57,2.37,0,0-.47-.89-1.33-2.23-9.79,1.94-18.84,4.6-27.12,7.99.07.58.12.94.12.94,0,0-.25-.26-.68-.7-42.45,17.65-64.65,54.66-64.65,112.64,0,2.57.03,5.13.09,7.67,1.52-18.3,5.25-38.98,13.93-51.29,0,0,17.83-6.98,31.14-19.67-2.42,4.17-7.81,11.13-18.79,16.35,0,0,16.4-5.97,22.44-17.89,6.82,2.66,35.48,13.37,49.72,11.74,11.89-1.36,14.02-6.64,14.19-9.83,6.18,4.7,16.39,11,29.77,14.07,0,0-20.22-8.45-28.69-15.98,6.03,2.61,30.87,13.05,40.85,12.72,9-.29,8.79-6.78,8.3-9.51.77,2.87,3.36,9.96,10.32,10.25,8.75.37,16-7.76,16-7.76,0,0,4.45,9.24,17.6,9.61,10.92.31,9.37-10.82,8.53-14.62,3.73,4.38,12.21,11.94,28.19,15.29,0,0-14.48-3.7-24.54-14.37,6.95,3.7,21.42,10.63,29.86,9.26,0,0,16.46,23.94,24.45,59.25.04-2.53.06-5.07.06-7.62,0-70.77-33.07-108.67-95.68-119.34Z"/>
          <path class="cls-63" d="m311.46,98.09c3.82-5.56,12.32-6.4,12.32-6.4-6.55-.84-11.1,2.11-13.67,4.56,1.33-5.08,4.74-20.84-2.67-26.09-8.87-6.28-10.35,6.28-10.35,6.28,0,0-3.47-24.39-16.89-24.76-13.42-.37-5.43,12.25-5.43,12.25,0,0-23.15-29.62-40.15-26.29-17,3.33-2.42,18.11-2.42,18.11,0,0-1.02-.81-2.73-2.07-3.08-3.8-9.13-10.27-17.95-15.3,0,0,6,4.32,10.53,10.09-8.66-5.75-20.76-12.57-27.5-11.09-8.52,1.87-9.57,7.78-9.57,10.58-.34-3.35-1.74-11.15-7.44-10.79-5.01.32-9.24,5.01-11.38,7.88.66-2.68,1.85-6.03,3.96-9.45,0,0-3.71,2.37-5.81,8.24-.76-4.56-3.14-11.93-10.64-10.64-10.72,1.85-4.62,24.02-4.62,24.02,0,0-9.37-18.11-19.75-13.68-10.38,4.44-7.79,20.38-7.79,20.38,0,0-20.15-21.86-30.4-12.25-9.16,8.58-.31,20.98,1.7,23.54-3.18-2.08-7.77-6.06-9.18-12.27,0,0-.28,8.02,7.1,13.35-7.44,1.93-29.13,8.61-28.93,20.7-1.22-1.99-2.47-4.85-2.57-8.36,0,0-.62,6.94,2.78,12.08-.37.25-.99.71-1.76,1.42-2.99.62-7.87,2.94-11.38,11.03.94-1.95,3.83-6.98,9.1-8.55-2.26,2.84-4.87,7.37-6.55,14.33-3.46,14.41.22,71.29,5.98,102.03,0,0-3.53-62.85,14.21-88.73,0,0,17.34-6.98,30.29-19.67-2.35,4.17-7.59,11.13-18.28,16.35,0,0,15.95-5.97,21.82-17.89,6.64,2.65,34.5,13.37,48.35,11.74,11.56-1.36,13.64-6.64,13.8-9.83,6.01,4.69,15.94,11,28.95,14.07,0,0-19.66-8.45-27.9-15.98,5.86,2.6,30.02,13.05,39.73,12.72,8.75-.29,8.55-6.78,8.07-9.51.75,2.87,3.26,9.96,10.04,10.25,8.5.37,15.56-7.76,15.56-7.76,0,0,4.33,9.24,17.12,9.61,10.62.31,9.11-10.82,8.29-14.62,3.63,4.38,11.88,11.94,27.41,15.29,0,0-14.08-3.7-23.87-14.37,6.76,3.7,20.83,10.63,29.04,9.26,0,0,27.75,41.47,27.92,95.76,0,0,16.21-113.83-16.51-119.58Z"/>
          <g>
            <path class="cls-45" d="m222.2,143.43s21.66,1.71,37.27,9.82c0,0,4.28-13.23,1.51-18.78-2.77-5.55-12.34-7.68-12.34-7.68,0,0,5.79-5.12,2.52-6.19-3.27-1.07-7.55,1.92-7.55,1.92,0,0,5.03-8.32.25-8.11-4.78.21-11.84,9.39-11.84,9.39,0,0,.51-6.4-4.03-6.4s-5.79,26.03-5.79,26.03Z"/>
            <path class="cls-66" d="m225,141.21s21.66,1.71,37.27,9.82c0,0,4.28-13.23,1.51-18.78-2.77-5.55-12.34-7.68-12.34-7.68,0,0,5.8-5.12,2.52-6.19-3.27-1.07-7.55,1.92-7.55,1.92,0,0,5.03-8.32.25-8.11-4.78.21-11.83,9.39-11.83,9.39,0,0,.5-6.4-4.03-6.4s-5.8,26.03-5.8,26.03Z"/>
          </g>
          <g>
            <path class="cls-44" d="m159.58,140.1s-21.66,1.71-37.27,9.82c0,0-4.28-13.23-1.51-18.78,2.77-5.55,12.34-7.68,12.34-7.68,0,0-5.8-5.12-2.52-6.19,3.27-1.07,7.55,1.92,7.55,1.92,0,0-5.03-8.32-.25-8.11,4.78.21,11.83,9.39,11.83,9.39,0,0-.5-6.4,4.03-6.4s5.8,26.03,5.8,26.03Z"/>
            <path class="cls-67" d="m156.77,137.89s-21.66,1.71-37.27,9.82c0,0-4.28-13.23-1.51-18.78,2.77-5.55,12.34-7.68,12.34-7.68,0,0-5.79-5.12-2.52-6.19,3.27-1.07,7.55,1.92,7.55,1.92,0,0-5.03-8.32-.25-8.11,4.78.21,11.84,9.39,11.84,9.39,0,0-.5-6.4,4.03-6.4s5.79,26.03,5.79,26.03Z"/>
          </g>
          <g>
            <path class="cls-58" d="m162.33,269.87c-.41,2.26-.64,4.59-.64,6.97,0,18.98,13.75,34.36,30.72,34.36s30.72-15.38,30.72-34.36c0-2.43-.23-4.8-.66-7.09-26.27,4.13-50.4,1.54-60.14.12Z"/>
            <path class="cls-43" d="m162.33,269.87c-.41,2.26-.64,4.59-.64,6.97,0,18.98,13.75,34.36,30.72,34.36s30.72-15.38,30.72-34.36c0-2.43-.23-4.8-.66-7.09-26.27,4.13-50.4,1.54-60.14.12Z"/>
            <path class="cls-17" d="m177.37,315.76s14.94,7.78,30.09,0c0,0-14.1,10.94-30.09,0Z"/>
          </g>
        </g>
        <g>
          <g>
            <path class="cls-11" d="m280.65,236.69c.08-.06.17-.12.25-.18.71-.99,1.7-1.77,2.88-2.31.07-.07.15-.13.22-.2-1.41.6-2.57,1.51-3.35,2.69"/>
            <path class="cls-11" d="m280.9,236.51c.09-.07.18-.13.27-.2.62-.78,1.42-1.41,2.35-1.89.09-.07.17-.15.26-.22-1.18.55-2.16,1.33-2.88,2.31"/>
            <path class="cls-11" d="m281.17,236.31c.14-.11.29-.22.43-.33.45-.49.98-.91,1.57-1.26.12-.1.24-.2.36-.31-.93.48-1.73,1.12-2.35,1.89"/>
            <path class="cls-11" d="m281.6,235.98c.53-.41,1.06-.83,1.57-1.26-.59.35-1.12.77-1.57,1.26"/>
            <path class="cls-9" d="m231.95,140.64c-31.29,10.92-47.79,45.15-36.84,76.44,10.94,31.26,45.15,47.76,76.43,36.81,31.27-10.92,47.76-45.15,36.82-76.41-10.92-31.29-45.15-47.79-76.42-36.85m-26.33,72.76c-8.92-25.48,4.53-53.35,29.99-62.25,25.5-8.93,53.35,4.5,62.27,29.98,8.9,25.48-4.53,53.35-30,62.28-25.48,8.9-53.35-4.53-62.25-30.01Z"/>
            <path class="cls-10" d="m234.28,147.1c25.48-8.9,53.35,4.52,62.26,30,.31.9.54,1.8.79,2.7-9.42-24.59-36.7-37.42-61.72-28.67-24.58,8.6-37.89,34.84-30.79,59.56-.18-.45-.39-.88-.55-1.34-8.91-25.48,4.52-53.35,30-62.26"/>
            <path class="cls-10" d="m270.21,249.87c30.23-10.57,46.65-42.9,37.82-73.29.11.3.24.6.34.9,10.93,31.28-5.56,65.5-36.83,76.43-31.28,10.93-65.49-5.55-76.43-36.83-.36-1.05-.69-2.09-.99-3.14,11.27,30.69,45.12,46.76,76.09,35.93"/>
            <path class="cls-10" d="m230,146.97c.86-.23,1.75-.49,2.66-.79,5.13-1.69,9-3.92,8.66-5-.29-.88-3.35-.67-7.27.36-.86.23-1.75.49-2.66.79-5.13,1.69-9.02,3.93-8.66,5,.29.88,3.35.67,7.27-.36"/>
            <path class="cls-12" d="m232.59,278.19c-.56-.11-1.19-.12-1.88-.02l1.88.02Z"/>
            <path class="cls-13" d="m232.72,278.22s-.09-.02-.13-.03l-1.88-.02s-.09.01-.14.02l2.15.03Z"/>
            <path class="cls-13" d="m159.08,277.33c-.26-.02-.5-.02-.74,0h.74Z"/>
          </g>
          <path class="cls-11" d="m103.1,236.69c-.08-.06-.17-.12-.25-.18-.71-.99-1.7-1.77-2.88-2.31-.07-.07-.15-.13-.22-.2,1.41.6,2.57,1.51,3.35,2.69"/>
          <path class="cls-11" d="m102.84,236.51c-.09-.07-.18-.13-.27-.2-.62-.78-1.42-1.41-2.35-1.89-.09-.07-.17-.15-.26-.22,1.18.55,2.16,1.33,2.88,2.31"/>
          <path class="cls-11" d="m102.58,236.31c-.14-.11-.29-.22-.43-.33-.45-.49-.98-.91-1.57-1.26-.12-.1-.24-.2-.36-.31.93.48,1.73,1.12,2.35,1.89"/>
          <path class="cls-11" d="m102.15,235.98c-.53-.41-1.06-.83-1.57-1.26.59.35,1.12.77,1.57,1.26"/>
          <path class="cls-9" d="m151.79,140.64c-31.26-10.94-65.49,5.55-76.42,36.85-10.94,31.26,5.55,65.49,36.82,76.41,31.29,10.95,65.49-5.55,76.43-36.81,10.95-31.29-5.55-65.52-36.84-76.44m-35.92,102.77c-25.48-8.92-38.9-36.8-30-62.28,8.92-25.48,36.77-38.91,62.27-29.98,25.46,8.89,38.91,36.77,29.99,62.25-8.9,25.48-36.77,38.91-62.25,30.01Z"/>
          <path class="cls-10" d="m149.47,147.1c-25.48-8.9-53.35,4.52-62.26,30-.31.9-.54,1.8-.79,2.7,9.42-24.59,36.7-37.42,61.72-28.67,24.58,8.6,37.89,34.84,30.79,59.56.18-.45.39-.88.55-1.34,8.91-25.48-4.52-53.35-30-62.26"/>
          <path class="cls-10" d="m113.54,249.87c-30.23-10.57-46.65-42.9-37.82-73.29-.11.3-.24.6-.34.9-10.93,31.28,5.56,65.5,36.83,76.43,31.28,10.93,65.49-5.55,76.43-36.83.36-1.05.69-2.09.99-3.14-11.27,30.69-45.12,46.76-76.09,35.93"/>
          <path class="cls-9" d="m201.78,185.57c.34,6.8-3.72,12.53-9.08,12.79-5.36.29-10-5.01-10.34-11.81-.34-6.8,3.72-12.53,9.09-12.82,5.36-.29,10,5.01,10.34,11.84"/>
          <path class="cls-10" d="m153.74,146.97c-.86-.23-1.75-.49-2.66-.79-5.13-1.69-9-3.92-8.66-5,.29-.88,3.35-.67,7.27.36.86.23,1.75.49,2.66.79,5.13,1.69,9.02,3.93,8.66,5-.29.88-3.35.67-7.27-.36"/>
          <path class="cls-12" d="m151.16,278.19c.56-.11,1.19-.12,1.88-.02l-1.88.02Z"/>
          <path class="cls-13" d="m151.02,278.22s.09-.02.13-.03l1.88-.02s.09.01.14.02l-2.15.03Z"/>
          <path class="cls-13" d="m224.66,277.33c.26-.02.5-.02.74,0h-.74Z"/>
          <polygon class="cls-9" points="54.41 203.63 74.08 197.27 79.61 190.19 74.55 181.31 53.83 196.37 54.41 203.63"/>
          <polygon class="cls-10" points="54.41 203.63 54.41 204.15 73.71 199.95 73.71 197.39 54.41 203.63"/>
          <polygon class="cls-9" points="329.92 203.63 310.24 197.27 304.72 190.19 309.77 181.31 330.5 196.37 329.92 203.63"/>
          <polygon class="cls-10" points="329.92 203.63 329.92 204.15 310.61 199.95 310.61 197.39 329.92 203.63"/>
          <ellipse class="cls-3" cx="192.02" cy="184.46" rx="2.85" ry="5.73"/>
          <path class="cls-2" d="m115.87,243.4c-25.45-9.01-38.62-37.85-29.43-64.45,9.22-26.59,37.28-40.85,62.76-31.83,25.44,8.98,38.63,37.83,29.41,64.41-9.19,26.59-37.28,40.85-62.74,31.86Z"/>
          <path class="cls-2" d="m204.46,211.54c-9.22-26.59,3.98-55.44,29.41-64.41,25.48-9.02,53.54,5.25,62.76,31.83,9.19,26.59-3.98,55.44-29.43,64.45-25.46,8.99-53.55-5.27-62.74-31.86Z"/>
        </g>
      </g>
    </g>
  </g>
</svg>